<svg xmlns="http://www.w3.org/2000/svg"
    xmlns:xlink="http://www.w3.org/1999/xlink" version="1.1" width="256" height="256" viewBox="0 0 256 256" xml:space="preserve">

    <defs>
    </defs>
    <g style="stroke: none; stroke-width: 0; stroke-dasharray: none; stroke-linecap: butt; stroke-linejoin: miter; stroke-miterlimit: 10; fill: #6c757d; fill-rule: nonzero; opacity: 1;" transform="translate(1.4065934065934016 1.4065934065934016) scale(2.81 2.81)">
        <path d="M 89.235 40.459 c -0.729 -0.976 -1.847 -1.536 -3.065 -1.536 H 74.085 v -8.511 c 0 -2.856 -2.324 -5.181 -5.181 -5.181 h -4.874 V 9.175 c 0 -1.96 -1.594 -3.554 -3.554 -3.554 H 13.819 c -1.96 0 -3.554 1.594 -3.554 3.554 v 6.312 H 5.18 c -2.856 0 -5.181 2.324 -5.181 5.181 v 49.46 v 7.593 v 2.517 c 0 2.284 1.858 4.143 4.142 4.143 h 70.042 c 0.011 0 0.021 0 0.033 0 c 2.389 0 4.245 -1.737 5.093 -4.753 l 10.531 -35.793 C 90.186 42.665 89.965 41.435 89.235 40.459 z M 68.905 28.231 c 1.202 0 2.181 0.978 2.181 2.181 v 8.511 h -7.055 V 28.231 H 68.905 z M 13.819 8.621 h 46.658 c 0.306 0 0.554 0.249 0.554 0.554 v 29.749 H 21.036 c -2.338 0 -4.42 1.57 -5.065 3.817 l -2.706 9.441 V 9.175 C 13.265 8.869 13.514 8.621 13.819 8.621 z M 4.142 81.379 c -0.63 0 -1.142 -0.513 -1.142 -1.143 V 77.72 v -7.593 v -49.46 c 0 -1.203 0.978 -2.181 2.181 -2.181 h 5.085 v 44.161 L 5.341 79.827 C 4.9 81.379 4.388 81.379 4.142 81.379 z M 86.963 42.986 L 76.426 78.797 c -0.331 1.179 -0.983 2.582 -2.222 2.582 c -0.003 0 -0.007 0 -0.011 0 H 7.985 c 0.086 -0.227 0.167 -0.469 0.241 -0.729 l 4.925 -17.184 h 0.114 v -0.397 l 5.59 -19.502 c 0.277 -0.968 1.174 -1.644 2.181 -1.644 h 65.133 c 0.361 0 0.57 0.208 0.663 0.332 S 87.066 42.639 86.963 42.986 z" style="stroke: none; stroke-width: 1; stroke-dasharray: none; stroke-linecap: butt; stroke-linejoin: miter; stroke-miterlimit: 10; fill: #6c757d; fill-rule: nonzero; opacity: 1;" transform=" matrix(1 0 0 1 0 0) " stroke-linecap="round" />
        <path d="M 53.125 20.484 H 20.287 c -0.829 0 -1.5 -0.671 -1.5 -1.5 s 0.671 -1.5 1.5 -1.5 h 32.838 c 0.828 0 1.5 0.671 1.5 1.5 S 53.954 20.484 53.125 20.484 z" style="stroke: none; stroke-width: 1; stroke-dasharray: none; stroke-linecap: butt; stroke-linejoin: miter; stroke-miterlimit: 10; fill: #6c757d; fill-rule: nonzero; opacity: 1;" transform=" matrix(1 0 0 1 0 0) " stroke-linecap="round" />
        <path d="M 53.125 29.484 H 20.287 c -0.829 0 -1.5 -0.671 -1.5 -1.5 s 0.671 -1.5 1.5 -1.5 h 32.838 c 0.828 0 1.5 0.671 1.5 1.5 S 53.954 29.484 53.125 29.484 z" style="stroke: none; stroke-width: 1; stroke-dasharray: none; stroke-linecap: butt; stroke-linejoin: miter; stroke-miterlimit: 10; fill: #6c757d; fill-rule: nonzero; opacity: 1;" transform=" matrix(1 0 0 1 0 0) " stroke-linecap="round" />
    </g>
</svg>