<svg width="766" height="754" viewBox="0 0 766 754" fill="none" xmlns="http://www.w3.org/2000/svg">
<path d="M766 585.837H0V586.22H766V585.837Z" fill="#E6E6E6"/>
<path d="M191.224 609.016H140.484V609.399H191.224V609.016Z" fill="#E6E6E6"/>
<path d="M124.429 609.016H95.03V609.399H124.429V609.016Z" fill="#E6E6E6"/>
<path d="M322.563 614.654H293.164V615.037H322.563V614.654Z" fill="#E6E6E6"/>
<path d="M475.855 623.202H409.688V623.585H475.855V623.202Z" fill="#E6E6E6"/>
<path d="M396.053 623.202H386.355V623.585H396.053V623.202Z" fill="#E6E6E6"/>
<path d="M694.532 614.654H551.014V615.037H694.532V614.654Z" fill="#E6E6E6"/>
<path d="M363.084 517.51H67.27C64.9526 517.506 62.7315 516.582 61.0943 514.942C59.4571 513.302 58.5376 511.079 58.5376 508.762V92.9311C58.5578 90.627 59.4862 88.4239 61.1212 86.8004C62.7563 85.1768 64.9658 84.2639 67.27 84.26H363.084C365.404 84.26 367.629 85.1816 369.269 86.8222C370.91 88.4627 371.832 90.6877 371.832 93.0077V508.762C371.832 511.082 370.91 513.307 369.269 514.947C367.629 516.588 365.404 517.51 363.084 517.51ZM67.27 84.5664C65.0542 84.5705 62.9305 85.4535 61.3652 87.0218C59.7998 88.59 58.9206 90.7153 58.9206 92.9311V508.762C58.9206 510.978 59.7998 513.103 61.3652 514.671C62.9305 516.239 65.0542 517.123 67.27 517.127H363.084C365.301 517.123 367.426 516.24 368.994 514.672C370.562 513.104 371.445 510.979 371.449 508.762V92.9311C371.445 90.7139 370.562 88.5887 368.994 87.0208C367.426 85.453 365.301 84.5705 363.084 84.5664H67.27Z" fill="#E6E6E6"/>
<path d="M694.471 517.51H398.642C396.323 517.506 394.1 516.583 392.461 514.943C390.821 513.303 389.898 511.081 389.894 508.762V92.9311C389.918 90.6256 390.85 88.4226 392.488 86.7994C394.125 85.1763 396.336 84.2639 398.642 84.26H694.471C696.772 84.268 698.978 85.1826 700.61 86.8058C702.242 88.4289 703.168 90.6297 703.188 92.9311V508.762C703.188 511.077 702.271 513.297 700.637 514.937C699.003 516.576 696.786 517.501 694.471 517.51ZM398.642 84.5664C396.425 84.5705 394.299 85.453 392.731 87.0208C391.164 88.5887 390.281 90.7139 390.277 92.9311V508.762C390.281 510.979 391.164 513.104 392.731 514.672C394.299 516.24 396.425 517.123 398.642 517.127H694.471C696.688 517.123 698.813 516.24 700.381 514.672C701.949 513.104 702.832 510.979 702.836 508.762V92.9311C702.832 90.7139 701.949 88.5887 700.381 87.0208C698.813 85.453 696.688 84.5705 694.471 84.5664H398.642Z" fill="#E6E6E6"/>
<path d="M409.657 454.973H375.968V588.61H409.657V454.973Z" fill="#E0E0E0"/>
<path d="M403.253 588.61H409.657V570.41H396.543L403.253 588.61Z" fill="#FAFAFA"/>
<path d="M262.033 454.973H228.345V588.61H262.033V454.973Z" fill="#E0E0E0"/>
<path d="M409.657 454.973H256.457V577.441H409.657V454.973Z" fill="#FAFAFA"/>
<path d="M404.096 460.994V493.396H261.972V460.994H404.05M404.647 460.397H261.42V493.978H404.693V460.397H404.647Z" fill="#E0E0E0"/>
<path d="M262.845 588.61H256.457V570.41H269.555L262.845 588.61Z" fill="#FAFAFA"/>
<path d="M329.671 477.187C329.671 477.857 329.87 478.512 330.242 479.068C330.614 479.625 331.143 480.059 331.761 480.315C332.38 480.572 333.061 480.639 333.717 480.508C334.374 480.377 334.977 480.055 335.451 479.581C335.924 479.108 336.247 478.505 336.378 477.848C336.508 477.191 336.441 476.51 336.185 475.892C335.929 475.273 335.495 474.744 334.938 474.372C334.381 474 333.726 473.802 333.057 473.802C332.159 473.802 331.298 474.158 330.663 474.793C330.028 475.428 329.671 476.289 329.671 477.187Z" fill="#E6E6E6"/>
<path d="M404.096 499.999V532.401H261.972V499.999H404.05M404.647 499.417H261.42V532.998H404.693V499.432L404.647 499.417Z" fill="#E0E0E0"/>
<path d="M329.671 516.284C329.671 516.954 329.87 517.608 330.242 518.165C330.614 518.722 331.143 519.156 331.761 519.412C332.38 519.668 333.061 519.735 333.717 519.605C334.374 519.474 334.977 519.152 335.451 518.678C335.924 518.205 336.247 517.601 336.378 516.944C336.508 516.288 336.441 515.607 336.185 514.988C335.929 514.37 335.495 513.841 334.938 513.469C334.381 513.097 333.726 512.898 333.057 512.898C332.159 512.898 331.298 513.255 330.663 513.89C330.028 514.525 329.671 515.386 329.671 516.284Z" fill="#E6E6E6"/>
<path d="M404.096 539.019V571.436H261.972V539.019H404.05M404.647 538.421H261.42V572.018H404.693V538.421H404.647Z" fill="#E0E0E0"/>
<path d="M329.671 555.227C329.674 555.896 329.875 556.55 330.249 557.104C330.623 557.659 331.153 558.091 331.772 558.344C332.391 558.598 333.071 558.663 333.727 558.531C334.383 558.399 334.984 558.075 335.456 557.601C335.928 557.127 336.249 556.523 336.379 555.867C336.508 555.211 336.44 554.531 336.183 553.913C335.927 553.295 335.493 552.767 334.936 552.396C334.38 552.025 333.726 551.826 333.057 551.826C332.611 551.826 332.169 551.914 331.758 552.086C331.346 552.257 330.972 552.507 330.657 552.823C330.343 553.139 330.094 553.515 329.924 553.927C329.755 554.34 329.669 554.782 329.671 555.227Z" fill="#E6E6E6"/>
<path d="M241.458 377.362H207.77V588.625H241.458V377.362Z" fill="#E0E0E0"/>
<path d="M235.055 588.61H241.458V570.41H228.36L235.055 588.61Z" fill="#FAFAFA"/>
<path d="M115.559 377.362H81.8701V588.625H115.559V377.362Z" fill="#E0E0E0"/>
<path d="M241.459 377.362H109.967V577.457H241.459V377.362Z" fill="#FAFAFA"/>
<path d="M235.79 383V428.301H115.635V383H235.79ZM236.495 382.311H114.9V428.96H236.464V382.326L236.495 382.311Z" fill="#E0E0E0"/>
<path d="M235.79 433.832V553.987H178.555V433.832H235.79ZM236.495 433.127H177.865V554.691H236.495V433.127Z" fill="#E0E0E0"/>
<path d="M172.871 433.832V553.987H115.635V433.832H172.871ZM173.56 433.127H114.9V554.691H173.53V433.127H173.56Z" fill="#E0E0E0"/>
<path d="M116.371 588.61H109.967V570.41H123.081L116.371 588.61Z" fill="#FAFAFA"/>
<path d="M172.319 405.674C172.316 406.347 172.513 407.006 172.885 407.567C173.257 408.129 173.787 408.567 174.408 408.827C175.029 409.086 175.714 409.156 176.374 409.026C177.035 408.897 177.643 408.574 178.12 408.099C178.597 407.624 178.922 407.018 179.055 406.358C179.187 405.698 179.121 405.013 178.864 404.391C178.607 403.769 178.171 403.237 177.612 402.862C177.052 402.488 176.394 402.288 175.72 402.288C174.821 402.288 173.958 402.644 173.321 403.279C172.684 403.913 172.323 404.774 172.319 405.674Z" fill="#E6E6E6"/>
<path d="M184.453 491.052C184.453 491.725 184.653 492.383 185.027 492.943C185.401 493.503 185.933 493.939 186.556 494.196C187.178 494.452 187.863 494.519 188.523 494.386C189.183 494.254 189.789 493.929 190.264 493.451C190.739 492.974 191.062 492.367 191.191 491.706C191.321 491.045 191.251 490.361 190.991 489.74C190.732 489.119 190.293 488.588 189.732 488.217C189.171 487.845 188.512 487.648 187.838 487.651C187.392 487.651 186.951 487.739 186.539 487.91C186.127 488.081 185.753 488.332 185.439 488.648C185.124 488.964 184.875 489.339 184.706 489.752C184.537 490.164 184.451 490.606 184.453 491.052Z" fill="#E6E6E6"/>
<path d="M160.201 491.052C160.204 491.721 160.405 492.374 160.779 492.929C161.153 493.484 161.683 493.915 162.302 494.169C162.921 494.423 163.601 494.488 164.257 494.355C164.913 494.223 165.514 493.899 165.986 493.425C166.458 492.951 166.779 492.348 166.909 491.692C167.038 491.035 166.97 490.355 166.713 489.737C166.457 489.12 166.023 488.592 165.466 488.22C164.91 487.849 164.256 487.651 163.587 487.651C163.141 487.651 162.699 487.739 162.288 487.91C161.876 488.081 161.502 488.332 161.187 488.648C160.873 488.964 160.624 489.339 160.455 489.752C160.285 490.164 160.199 490.606 160.201 491.052Z" fill="#E6E6E6"/>
<path d="M156.371 318.457H142.169C143.478 325.346 144.302 332.318 144.636 339.323C144.636 346.983 133.82 377.362 149.232 377.362C164.644 377.362 153.828 347.059 153.828 339.323C154.187 332.316 155.037 325.344 156.371 318.457Z" fill="#E0E0E0"/>
<path d="M102.338 349.526V358.718C102.354 363.645 104.318 368.367 107.803 371.851C111.287 375.335 116.008 377.3 120.936 377.316H130.128C135.056 377.3 139.777 375.335 143.261 371.851C146.746 368.367 148.71 363.645 148.727 358.718V349.526H102.338Z" fill="#F5F5F5"/>
<path d="M299.766 435.486C299.766 446.21 311.762 454.973 326.423 454.973H339.66C354.321 454.973 366.316 446.21 366.316 435.486H299.766Z" fill="#E0E0E0"/>
<path d="M650.502 419.768C642.475 426.325 631.383 438.321 621.241 455.203C614.47 466.448 610.395 478.183 608.602 493.779C608.602 476.161 608.71 457.241 608.771 439.378C610.808 434.782 615.466 424.18 618.805 415.815C629.943 387.887 634.125 381.008 644.129 356.925C657.504 324.753 671.2 286.668 667.278 289.717C659.281 295.921 628.641 353.295 625.332 361.506C616.312 383.42 610.736 406.598 608.801 430.216C608.801 413.364 608.924 398.044 608.985 386.156C609.2 347.381 609.859 334.865 610.18 331.004C611.421 329.043 612.877 326.76 613.734 325.535C620.935 315.117 623.708 306.262 630.479 290.728C640.1 268.743 648.373 229.693 645.952 231.654C635.872 239.865 627.936 257.483 617.488 279.958C607.04 302.432 610.027 315.347 607.959 334.528C607.53 338.296 607.193 352.513 606.948 372.199C604.251 351.211 599.165 337.392 589.897 324.83C578.498 309.372 567.468 298.939 559.379 293.485C551.29 288.031 573.351 325.994 583.891 342.509C593.282 357.278 601.938 370.284 606.871 383.107C606.611 409.81 606.488 443.606 606.488 475.027C604.068 460.718 600.115 445.291 594.845 433.357C588.502 419.017 578.759 397.018 570.992 389.557C569.138 387.765 579.111 430.553 585.515 441.921C591.919 453.288 596.622 464.027 600.651 470.477C601.586 472.009 604.711 477.785 606.488 481.125C606.488 519.532 606.703 553.42 607.04 564.956H608.694C608.587 561.984 608.556 542.435 608.602 516.575C612.601 502.542 621.732 486.517 629.269 471.902C637.48 456.076 658.53 413.257 650.502 419.768Z" fill="#E0E0E0"/>
<path d="M631.858 588.61H583.845L580.214 541.547H635.489L631.858 588.61Z" fill="#F0F0F0"/>
<path d="M639.059 547.031H576.63L574.853 531.144H640.851L639.059 547.031Z" fill="#F5F5F5"/>
<path d="M190.366 115.666H104.498V209.961H190.366V115.666Z" fill="#E0E0E0"/>
<path d="M199.665 115.666H110.963V209.961H199.665V115.666Z" fill="#F5F5F5"/>
<path d="M192.235 202.53V123.096H118.393V202.53H192.235Z" fill="white"/>
<path d="M174.326 183.258V142.338H136.287V183.258H174.326Z" fill="#F5F5F5"/>
<path d="M628.196 126.65H548.425V214.25H628.196V126.65Z" fill="#E0E0E0"/>
<path d="M636.837 126.65H554.446V214.25H636.837V126.65Z" fill="#F5F5F5"/>
<path d="M629.943 207.341V133.56H561.355V207.341H629.943Z" fill="white"/>
<path d="M595.642 191.852C607.462 191.852 617.044 182.27 617.044 170.45C617.044 158.63 607.462 149.048 595.642 149.048C583.822 149.048 574.24 158.63 574.24 170.45C574.24 182.27 583.822 191.852 595.642 191.852Z" fill="#F5F5F5"/>
<path d="M279.575 171.89H215.874V241.842H279.575V171.89Z" fill="#E0E0E0"/>
<path d="M286.469 171.89H220.669V241.842H286.469V171.89Z" fill="#F5F5F5"/>
<path d="M280.954 236.326V177.406H226.185V236.326H280.954Z" fill="white"/>
<path d="M253.577 191.96L238.594 217.912H268.56L253.577 191.96Z" fill="#F5F5F5"/>
<path d="M383 655.022C547.05 655.022 680.039 647.257 680.039 637.68C680.039 628.102 547.05 620.337 383 620.337C218.95 620.337 85.9604 628.102 85.9604 637.68C85.9604 647.257 218.95 655.022 383 655.022Z" fill="#F5F5F5"/>
<path d="M535.051 250.375L519.853 244.247C519.853 244.247 499.8 280.816 494.055 282.669C486.241 285.182 470.063 292.168 460.473 293.393C459.171 294.925 457.041 299.69 457.241 301.421C470.125 305.726 498.436 300.012 504.503 295.507C518.306 285.289 535.051 250.375 535.051 250.375Z" fill="#E58A7B"/>
<path d="M539.723 242.056C542.558 252.52 527.207 273.569 527.207 273.569L507.092 262.294C507.092 262.294 510.861 253.638 515.457 244.829C522.825 230.597 536.491 230.122 539.723 242.056Z" fill="#394689"/>
<path opacity="0.2" d="M539.723 242.056C542.558 252.52 527.207 273.569 527.207 273.569L507.092 262.294C507.092 262.294 510.861 253.638 515.457 244.829C522.825 230.597 536.491 230.122 539.723 242.056Z" fill="black"/>
<path opacity="0.2" d="M515.073 266.798L522.994 271.241L524.388 246.928C519.777 250.467 516.529 261.129 515.073 266.798Z" fill="black"/>
<path d="M526.487 234.182C526.487 234.182 510.83 269.019 519.961 333.884H581.654C582.635 324.416 579.387 278.211 591.137 233.599C584.37 232.277 577.522 231.402 570.639 230.98C561.909 230.474 553.157 230.474 544.427 230.98C538.375 231.594 532.378 232.665 526.487 234.182Z" fill="#394689"/>
<path opacity="0.2" d="M526.487 234.182C526.487 234.182 510.83 269.019 519.961 333.884H581.654C582.635 324.416 579.387 278.211 591.137 233.599C584.37 232.277 577.522 231.402 570.639 230.98C561.909 230.474 553.157 230.474 544.427 230.98C538.375 231.594 532.378 232.665 526.487 234.182Z" fill="black"/>
<g style="mix-blend-mode:multiply">
<path d="M512.178 639.059C512.086 640.713 535.48 642.046 564.419 642.046C593.359 642.046 616.921 640.713 617.013 639.059C617.105 637.404 593.726 636.086 564.772 636.086C535.817 636.086 512.285 637.419 512.178 639.059Z" fill="#E8ECF1"/>
</g>
<path d="M553.359 595.585L542.417 599.82L551.842 624.169L562.785 619.934L553.359 595.585Z" fill="#E58A7B"/>
<path d="M602.152 627.277H590.616L586.388 600.575H597.924L602.152 627.277Z" fill="#E58A7B"/>
<path d="M589.82 625.945H602.781C603.005 625.945 603.223 626.026 603.394 626.172C603.565 626.317 603.679 626.519 603.715 626.741L605.385 636.99C605.42 637.247 605.4 637.509 605.325 637.758C605.25 638.006 605.122 638.235 604.951 638.43C604.779 638.625 604.568 638.781 604.331 638.886C604.094 638.992 603.837 639.046 603.577 639.043C599.058 638.967 596.882 638.691 591.183 638.691C587.675 638.691 580.459 639.059 575.588 639.059C570.716 639.059 570.394 634.279 572.401 633.834C581.409 631.889 584.902 629.238 587.905 626.665C588.434 626.2 589.115 625.944 589.82 625.945Z" fill="#263238"/>
<path d="M551.52 621.992L563.776 618.407C563.995 618.346 564.228 618.361 564.437 618.45C564.646 618.539 564.818 618.697 564.925 618.897L569.521 628.089C569.628 628.323 569.682 628.576 569.681 628.833C569.679 629.089 569.622 629.342 569.512 629.574C569.403 629.806 569.244 630.012 569.047 630.176C568.85 630.34 568.62 630.459 568.372 630.525C563.914 631.751 560.926 632.502 555.35 634.125C551.505 635.244 547.583 637.067 543.783 638.277C541.148 639.12 534.959 639.15 531.757 639.15C527.023 639.15 525.966 634.156 528.004 633.926C533.136 633.359 533.825 633.62 536.659 632.195C541.297 630.168 545.5 627.265 549.038 623.647C549.705 622.886 550.561 622.315 551.52 621.992Z" fill="#263238"/>
<path d="M462.403 293.332L449.718 288.016L444.494 302.08C449.694 302.872 454.983 302.872 460.182 302.08L462.403 293.332Z" fill="#E58A7B"/>
<path d="M440.281 287.648L439.944 296.994L444.494 302.049L449.718 287.985L440.281 287.648Z" fill="#E58A7B"/>
<path d="M554.86 597.652L543.884 601.89L548.745 614.481L559.721 610.243L554.86 597.652Z" fill="#CF6F64"/>
<path d="M597.924 600.575H586.388L588.579 614.347H600.115L597.924 600.575Z" fill="#CF6F64"/>
<path opacity="0.2" d="M518 316.343C518.23 319.116 518.49 321.95 518.827 324.861L564.695 309.97C571.858 307.847 578.083 303.345 582.344 297.208C582.528 293.118 582.757 288.813 583.11 284.324C583.263 282.148 583.447 279.912 583.646 277.644C583.845 275.377 584.121 272.865 584.412 270.444L518 316.343Z" fill="black"/>
<path d="M532.983 266.093L531.451 265.909C532.355 258.249 538.069 252.213 544.09 252.366V253.898C538.82 253.791 533.795 259.23 532.983 266.093Z" fill="white"/>
<path d="M541.148 280.233H540.888V278.701C546.158 278.901 551.106 273.401 551.918 266.553L553.45 266.737C552.638 274.228 547.108 280.233 541.148 280.233Z" fill="white"/>
<path d="M569.781 201.458C567.621 209.899 565.078 225.357 570.639 230.98C570.639 230.98 566.748 239.544 551.076 239.544C536.751 239.544 544.427 230.98 544.427 230.98C553.956 228.743 554.124 221.788 552.868 215.2L569.781 201.458Z" fill="#E58A7B"/>
<path d="M562.887 207.065L552.883 215.2C553.193 216.714 553.373 218.252 553.419 219.796C556.346 222.707 562.213 215.338 562.811 211.569C563.114 210.085 563.14 208.558 562.887 207.065Z" fill="#CF6F64"/>
<path d="M535.679 201.351C536.375 202.557 537.312 203.607 538.433 204.435C539.553 205.263 540.832 205.85 542.19 206.161C545.867 206.973 547.705 203.587 546.694 200.186C545.79 197.122 542.772 193.001 539.034 193.706C538.233 193.871 537.484 194.225 536.848 194.74C536.213 195.254 535.709 195.913 535.381 196.661C535.052 197.41 534.908 198.226 534.96 199.042C535.012 199.858 535.258 200.65 535.679 201.351Z" fill="#CF6F64"/>
<path d="M541.761 174.342C536.031 176.961 534.009 199.727 541.209 203.097C548.41 206.468 552.608 169.363 541.761 174.342Z" fill="#263238"/>
<path d="M571.528 188.758C570.149 200.186 569.996 206.912 563.868 212.764C561.969 214.706 559.57 216.086 556.937 216.75C554.303 217.415 551.537 217.339 548.944 216.531C546.351 215.722 544.032 214.213 542.242 212.17C540.453 210.126 539.263 207.628 538.804 204.951C536.951 194.687 539.509 177.727 550.968 173.177C553.376 172.115 556.024 171.717 558.638 172.023C561.251 172.329 563.736 173.328 565.833 174.917C567.93 176.507 569.564 178.628 570.566 181.062C571.567 183.495 571.899 186.153 571.528 188.758Z" fill="#E58A7B"/>
<path d="M552.699 180.255C561.187 178.095 567.422 176.624 565.185 183.687C562.229 193.124 558.674 202.255 563.439 202.668C566.35 202.929 579.218 197.475 577.579 191.944C576.154 187.134 582.175 185.816 583.248 183.38C587.215 174.556 575.863 175.72 577.886 170.358C579.908 164.996 568.694 156.356 562.566 160.661C552.592 167.616 535.48 167.509 544.473 156.065C550.922 147.899 539.417 149.569 539.417 149.569C539.417 149.569 546.372 153.69 534.668 160.063C522.289 166.865 533.641 185.142 552.699 180.255Z" fill="#263238"/>
<path d="M576.032 201.351C574.356 203.775 571.839 205.49 568.969 206.161C565.185 206.973 563.73 203.587 565.155 200.186C566.426 197.122 569.919 193.001 573.535 193.706C577.15 194.411 577.978 198.348 576.032 201.351Z" fill="#E58A7B"/>
<path d="M519.961 333.884C519.961 333.884 509.604 426.57 508.792 461.745C507.965 498.329 543.891 612.478 543.891 612.478L562.275 604.818C562.275 604.818 540.827 500.52 543.891 464.594C547.138 425.421 560.559 333.945 560.559 333.945L519.961 333.884Z" fill="#394689"/>
<path opacity="0.2" d="M545.698 359.331C537.441 376.458 543.002 410.331 547.475 430.4C549.176 416.229 551.198 400.848 553.113 386.616C552.929 364.739 551.229 347.841 545.698 359.331Z" fill="black"/>
<path d="M561.463 598.752C561.555 598.752 563.638 604.604 563.638 604.604L542.435 613.52L539.095 607.3L561.463 598.752Z" fill="#394689"/>
<path d="M541.853 333.884C541.853 333.884 549.773 422.035 555.013 455.05C560.773 491.22 583.355 611.682 583.355 611.682H604.481C604.481 611.682 591.827 494.147 589.437 458.328C586.833 419.477 581.654 333.884 581.654 333.884H541.853Z" fill="#394689"/>
<path d="M604.803 606.182C604.895 606.182 605.508 612.08 605.508 612.08H582.282L580.628 605.309L604.803 606.182Z" fill="#394689"/>
<path opacity="0.2" d="M596.714 599.196C596.666 599.196 596.619 599.18 596.583 599.149C596.546 599.118 596.522 599.075 596.515 599.027C596.392 597.955 584.979 491.787 582.834 459.615C580.505 424.716 575.817 347.304 575.771 346.523C575.769 346.498 575.772 346.472 575.781 346.448C575.789 346.424 575.802 346.402 575.82 346.383C575.837 346.364 575.858 346.349 575.881 346.339C575.905 346.329 575.93 346.324 575.955 346.324C576.006 346.324 576.054 346.343 576.091 346.377C576.128 346.411 576.151 346.458 576.154 346.508C576.154 347.289 580.888 424.64 583.217 459.6C585.362 491.772 596.775 597.863 596.882 599.012C596.887 599.037 596.886 599.063 596.879 599.088C596.873 599.113 596.862 599.136 596.846 599.157C596.83 599.177 596.81 599.194 596.787 599.206C596.764 599.218 596.739 599.225 596.714 599.227V599.196Z" fill="black"/>
<path d="M554.002 191.944C554.002 192.879 553.42 193.629 552.807 193.629C552.194 193.629 551.75 192.879 551.811 191.944C551.872 191.01 552.393 190.259 553.006 190.259C553.619 190.259 554.063 191.025 554.002 191.944Z" fill="#263238"/>
<path d="M543.492 191.944C543.492 192.879 542.895 193.629 542.297 193.629C541.7 193.629 541.24 192.879 541.286 191.944C541.332 191.01 541.884 190.259 542.496 190.259C543.109 190.259 543.553 191.025 543.492 191.944Z" fill="#263238"/>
<path d="M546.801 192.419C545.523 195.273 543.874 197.946 541.899 200.37C543.431 201.902 546.296 201.198 546.296 201.198L546.801 192.419Z" fill="#DF5753"/>
<path d="M547.077 205.104C547.042 205.104 547.006 205.097 546.974 205.083C546.941 205.069 546.912 205.048 546.887 205.023C546.863 204.997 546.844 204.966 546.832 204.933C546.82 204.899 546.815 204.864 546.817 204.828C546.821 204.754 546.853 204.684 546.907 204.632C546.961 204.581 547.033 204.553 547.108 204.553C548.279 204.561 549.438 204.306 550.499 203.808C551.559 203.309 552.494 202.58 553.236 201.672C553.289 201.626 553.357 201.601 553.427 201.601C553.498 201.601 553.566 201.626 553.619 201.672C553.668 201.724 553.696 201.793 553.696 201.864C553.696 201.935 553.668 202.004 553.619 202.055C552.825 203.02 551.826 203.794 550.694 204.322C549.562 204.849 548.326 205.117 547.077 205.104Z" fill="#263238"/>
<path d="M555.871 189.125C555.797 189.163 555.716 189.183 555.633 189.183C555.551 189.183 555.469 189.163 555.396 189.125C554.823 188.755 554.17 188.524 553.492 188.453C552.813 188.381 552.127 188.47 551.489 188.712C551.427 188.743 551.359 188.761 551.29 188.766C551.22 188.77 551.151 188.761 551.085 188.738C551.019 188.715 550.959 188.679 550.907 188.633C550.856 188.586 550.814 188.53 550.784 188.467C550.728 188.33 550.726 188.177 550.781 188.04C550.835 187.902 550.941 187.792 551.075 187.731C551.876 187.404 552.744 187.275 553.606 187.355C554.467 187.435 555.297 187.722 556.024 188.191C556.083 188.231 556.133 188.282 556.172 188.341C556.21 188.401 556.237 188.468 556.25 188.537C556.263 188.607 556.261 188.679 556.246 188.748C556.231 188.818 556.202 188.883 556.162 188.942C556.084 189.029 555.983 189.093 555.871 189.125Z" fill="#263238"/>
<path d="M539.432 186.061C539.351 186.042 539.276 185.999 539.218 185.939C539.167 185.889 539.126 185.829 539.099 185.764C539.071 185.698 539.057 185.627 539.057 185.556C539.057 185.485 539.071 185.414 539.099 185.348C539.126 185.282 539.167 185.223 539.218 185.173C539.805 184.514 540.536 184 541.355 183.671C542.173 183.341 543.057 183.205 543.936 183.273C544.007 183.284 544.074 183.309 544.135 183.347C544.195 183.385 544.247 183.435 544.287 183.494C544.327 183.553 544.355 183.62 544.368 183.69C544.382 183.76 544.381 183.832 544.365 183.901C544.332 184.043 544.249 184.168 544.131 184.253C544.012 184.337 543.867 184.376 543.722 184.361C543.026 184.317 542.329 184.432 541.684 184.698C541.039 184.963 540.463 185.372 539.999 185.893C539.929 185.97 539.839 186.027 539.739 186.057C539.639 186.087 539.533 186.088 539.432 186.061Z" fill="#263238"/>
<path d="M597.066 248.674L581.133 244.431C581.133 244.431 565.507 282.899 559.976 285.396C552.47 288.828 533.458 300.716 525.369 306.339C524.924 308.254 525.277 313.325 526.288 314.719C540.076 312.206 566.472 302.049 571.987 296.886C584.565 285.105 597.066 248.674 597.066 248.674Z" fill="#E58A7B"/>
<path d="M585.944 627.967C585.167 628.028 584.392 627.817 583.753 627.369C583.556 627.191 583.408 626.965 583.325 626.712C583.242 626.46 583.226 626.19 583.278 625.929C583.288 625.766 583.341 625.609 583.433 625.474C583.525 625.34 583.651 625.232 583.799 625.163C585.086 624.505 588.686 626.787 589.1 627.048C589.145 627.076 589.18 627.118 589.2 627.167C589.219 627.217 589.222 627.272 589.207 627.323C589.194 627.377 589.167 627.426 589.13 627.466C589.092 627.507 589.045 627.536 588.993 627.553C587.994 627.799 586.972 627.937 585.944 627.967ZM584.412 625.577C584.296 625.551 584.176 625.551 584.06 625.577C584.001 625.607 583.952 625.653 583.92 625.71C583.887 625.767 583.872 625.833 583.876 625.899C583.835 626.077 583.842 626.263 583.896 626.438C583.949 626.612 584.048 626.77 584.182 626.894C584.78 627.431 586.281 627.492 588.257 627.109C587.081 626.334 585.755 625.812 584.366 625.577H584.412Z" fill="#394689"/>
<path d="M588.916 627.553C588.876 627.566 588.833 627.566 588.793 627.553C587.644 626.91 585.484 624.382 585.806 623.095C585.854 622.891 585.969 622.709 586.133 622.579C586.297 622.448 586.5 622.376 586.71 622.375C586.915 622.348 587.125 622.365 587.323 622.426C587.521 622.486 587.704 622.589 587.859 622.727C589.13 623.815 589.207 627.155 589.207 627.323C589.214 627.374 589.205 627.425 589.18 627.469C589.155 627.514 589.116 627.549 589.069 627.569C589.018 627.579 588.964 627.574 588.916 627.553ZM586.863 622.881H586.756C586.403 622.881 586.358 623.08 586.342 623.156C586.158 623.907 587.522 625.822 588.655 626.726C588.65 625.432 588.249 624.17 587.506 623.11C587.329 622.955 587.099 622.873 586.863 622.881Z" fill="#394689"/>
<path d="M545.269 626.052C544.332 626.379 543.311 626.379 542.374 626.052C542.161 625.937 541.981 625.769 541.849 625.566C541.718 625.362 541.64 625.129 541.623 624.888C541.604 624.736 541.623 624.582 541.68 624.44C541.736 624.298 541.827 624.173 541.945 624.076C543.171 622.973 548.18 624.076 548.747 624.29C548.801 624.304 548.849 624.336 548.882 624.38C548.915 624.425 548.933 624.48 548.931 624.535C548.933 624.593 548.918 624.649 548.888 624.699C548.858 624.748 548.815 624.787 548.762 624.811C547.634 625.32 546.466 625.735 545.269 626.052ZM542.772 624.229C542.597 624.264 542.434 624.343 542.297 624.459C542.249 624.495 542.211 624.545 542.189 624.602C542.168 624.659 542.163 624.721 542.175 624.78C542.185 624.941 542.235 625.097 542.321 625.233C542.406 625.37 542.525 625.483 542.665 625.562C543.477 625.991 545.361 625.654 547.797 624.627C546.156 624.213 544.458 624.079 542.772 624.229Z" fill="#394689"/>
<path d="M548.716 624.811H548.594C547.062 624.535 543.998 622.773 543.906 621.456C543.906 621.149 544.044 620.72 544.779 620.475C545.027 620.387 545.291 620.349 545.554 620.365C545.818 620.381 546.075 620.45 546.311 620.567C547.966 621.379 548.839 624.321 548.885 624.459C548.896 624.505 548.894 624.553 548.881 624.599C548.867 624.644 548.842 624.686 548.808 624.719C548.785 624.757 548.754 624.788 548.716 624.811ZM545.085 620.935H544.932C544.457 621.103 544.457 621.303 544.457 621.364C544.457 622.161 546.679 623.616 548.226 624.106C547.87 622.876 547.115 621.798 546.081 621.042C545.774 620.886 545.419 620.848 545.085 620.935Z" fill="#394689"/>
<path d="M526.671 305.435L510.692 312.788L508.838 317.384L514.737 321.352C514.737 321.352 525.767 320.157 528.908 313.064L526.671 305.435Z" fill="#E58A7B"/>
<path d="M527.345 314.979C526.988 311.909 525.974 308.952 524.373 306.308L526.901 304.408C528.802 307.454 530.015 310.879 530.455 314.443L527.345 314.979Z" fill="#263238"/>
<path d="M530.072 307.61C530.41 308.142 530.576 308.764 530.547 309.393C530.519 310.022 530.297 310.627 529.913 311.125C529.528 311.624 528.999 311.992 528.398 312.179C527.797 312.367 527.153 312.365 526.553 312.173C525.954 311.981 525.428 311.609 525.047 311.108C524.666 310.607 524.449 310 524.425 309.371C524.401 308.742 524.571 308.121 524.913 307.592C525.254 307.063 525.751 306.652 526.334 306.415C526.989 306.082 527.749 306.02 528.449 306.244C529.149 306.468 529.732 306.959 530.072 307.61Z" fill="#263238"/>
<path d="M499.891 318.733L502.021 320.877L516.36 314.749L510.692 312.788L499.891 318.733Z" fill="#E58A7B"/>
<path opacity="0.2" d="M561.463 598.752C561.555 598.752 563.638 604.604 563.638 604.604L542.435 613.52L539.095 607.3L561.463 598.752Z" fill="black"/>
<path opacity="0.2" d="M604.803 606.182C604.895 606.182 605.508 612.08 605.508 612.08H582.282L580.628 605.309L604.803 606.182Z" fill="black"/>
<path d="M601.218 244.262C605.431 257.851 588.962 276.434 588.962 276.434L566.212 267.15C568.908 259.296 572.017 251.589 575.526 244.063C582.512 229.003 596.959 230.551 601.218 244.262Z" fill="#394689"/>
<path opacity="0.2" d="M601.218 244.262C605.431 257.851 588.962 276.434 588.962 276.434L566.212 267.15C568.908 259.296 572.017 251.589 575.526 244.063C582.512 229.003 596.959 230.551 601.218 244.262Z" fill="black"/>
<path d="M375.156 108.113H365.367V109.691H375.156V108.113Z" fill="#394689"/>
<path d="M501.88 170.568L500.696 196.861L502.272 196.932L503.457 170.639L501.88 170.568Z" fill="#394689"/>
<path d="M498.834 115.191H318.058L301.237 491.634H482.013L498.834 115.191Z" fill="#394689"/>
<path opacity="0.56" d="M493.442 120.369H312.666L295.844 496.812H476.62L493.442 120.369Z" fill="#FAFAFA"/>
<path opacity="0.07" d="M488.049 125.532H307.273L290.437 501.975H471.212L488.049 125.532Z" fill="#394689"/>
<path d="M467.474 289.717H313.171L311.885 318.518H466.188L467.474 289.717Z" fill="white"/>
<path d="M398.029 268.697H314.106L313.539 281.582H397.462L398.029 268.697Z" fill="#394689"/>
<path d="M463.997 367.45H309.694L308.407 396.252H462.71L463.997 367.45Z" fill="white"/>
<path opacity="0.47" d="M435.701 435.149H331.938L330.391 469.665H434.153L435.701 435.149Z" fill="#394689"/>
<path d="M428.761 475.027H324.998C324.953 475.039 324.906 475.039 324.861 475.027C324.845 474.983 324.845 474.934 324.861 474.889L326.393 440.358C326.392 440.335 326.397 440.311 326.407 440.29C326.416 440.268 326.43 440.249 326.447 440.233C326.464 440.217 326.485 440.205 326.507 440.198C326.529 440.19 326.553 440.187 326.576 440.19H430.339C430.358 440.18 430.379 440.175 430.4 440.175C430.421 440.175 430.442 440.18 430.461 440.19C430.472 440.208 430.478 440.229 430.478 440.251C430.478 440.272 430.472 440.293 430.461 440.312L428.96 474.92C428.941 474.956 428.913 474.985 428.877 475.005C428.841 475.024 428.801 475.032 428.761 475.027ZM325.182 474.66H428.577L430.109 440.496H326.714L325.182 474.66Z" fill="white"/>
<path d="M379.905 346.431H310.628L310.062 359.331H379.323L379.905 346.431Z" fill="#394689"/>
<path d="M433.725 196.678C433.329 205.06 430.348 213.114 425.191 219.735C421.374 224.735 416.462 228.795 410.832 231.602C405.202 234.409 399.004 235.889 392.713 235.928C387.629 235.967 382.591 234.964 377.91 232.982C373.228 231 369.002 228.081 365.491 224.404C361.981 220.727 359.26 216.37 357.497 211.602C355.734 206.833 354.966 201.755 355.24 196.678C355.779 186.144 360.322 176.214 367.939 168.918C375.557 161.622 385.674 157.512 396.221 157.428C401.309 157.381 406.352 158.377 411.039 160.356C415.726 162.334 419.958 165.253 423.473 168.931C426.988 172.61 429.711 176.97 431.474 181.742C433.237 186.515 434.003 191.598 433.725 196.678Z" fill="white"/>
<path d="M437.417 165.64C437.317 167.869 436.524 170.011 435.149 171.768C434.132 173.096 432.825 174.174 431.327 174.92C429.83 175.666 428.182 176.061 426.509 176.073C424.888 176.083 423.289 175.695 421.853 174.945C420.416 174.195 419.185 173.104 418.267 171.768C417.051 169.963 416.449 167.814 416.551 165.64C416.699 162.843 417.908 160.208 419.932 158.272C421.956 156.336 424.643 155.246 427.443 155.222C428.794 155.21 430.134 155.474 431.379 155.999C432.624 156.524 433.748 157.299 434.682 158.275C435.617 159.251 436.341 160.408 436.812 161.674C437.282 162.941 437.488 164.291 437.417 165.64Z" fill="#394689"/>
<path d="M329.794 304.117C329.72 305.352 329.181 306.513 328.286 307.365C327.39 308.218 326.204 308.7 324.968 308.713C324.371 308.72 323.778 308.605 323.228 308.374C322.677 308.143 322.18 307.802 321.766 307.371C321.353 306.94 321.032 306.429 320.824 305.87C320.615 305.31 320.524 304.714 320.556 304.117C320.622 302.88 321.159 301.715 322.056 300.861C322.953 300.007 324.143 299.527 325.381 299.521C325.978 299.516 326.569 299.633 327.119 299.865C327.668 300.097 328.165 300.438 328.578 300.868C328.991 301.299 329.312 301.809 329.521 302.367C329.73 302.926 329.823 303.522 329.794 304.117Z" fill="#263238"/>
<path d="M350.445 304.117C350.375 305.353 349.837 306.516 348.941 307.37C348.045 308.223 346.857 308.704 345.619 308.713C345.023 308.718 344.433 308.601 343.884 308.37C343.335 308.138 342.839 307.796 342.428 307.366C342.016 306.935 341.696 306.425 341.489 305.866C341.282 305.307 341.191 304.712 341.222 304.117C341.289 302.883 341.823 301.72 342.717 300.866C343.611 300.012 344.797 299.531 346.033 299.521C346.63 299.514 347.222 299.63 347.773 299.86C348.324 300.091 348.821 300.433 349.235 300.863C349.648 301.294 349.969 301.805 350.177 302.365C350.385 302.925 350.476 303.521 350.445 304.117Z" fill="#263238"/>
<path d="M371.112 304.117C371.042 305.353 370.504 306.516 369.607 307.37C368.711 308.223 367.524 308.704 366.286 308.713C365.689 308.718 365.098 308.601 364.548 308.37C363.999 308.138 363.502 307.797 363.089 307.366C362.676 306.936 362.355 306.426 362.146 305.867C361.937 305.309 361.844 304.713 361.874 304.117C361.944 302.882 362.481 301.719 363.378 300.865C364.274 300.011 365.462 299.531 366.699 299.521C367.297 299.514 367.889 299.63 368.439 299.86C368.99 300.091 369.488 300.433 369.901 300.863C370.315 301.294 370.636 301.805 370.844 302.365C371.052 302.925 371.143 303.521 371.112 304.117Z" fill="#263238"/>
<path d="M326.316 381.851C326.242 383.086 325.704 384.246 324.808 385.099C323.912 385.952 322.727 386.434 321.49 386.447C320.894 386.452 320.303 386.335 319.753 386.103C319.203 385.872 318.707 385.53 318.293 385.1C317.88 384.67 317.56 384.16 317.351 383.601C317.142 383.042 317.049 382.447 317.078 381.851C317.148 380.615 317.686 379.452 318.582 378.599C319.478 377.745 320.666 377.265 321.904 377.255C322.5 377.25 323.091 377.367 323.641 377.599C324.191 377.83 324.687 378.172 325.1 378.602C325.514 379.032 325.834 379.542 326.043 380.101C326.252 380.66 326.345 381.255 326.316 381.851Z" fill="#263238"/>
<path d="M346.967 381.851C346.897 383.084 346.362 384.245 345.469 385.098C344.576 385.951 343.392 386.433 342.157 386.447C341.56 386.454 340.967 386.339 340.417 386.108C339.866 385.877 339.369 385.536 338.955 385.105C338.541 384.674 338.221 384.163 338.012 383.603C337.804 383.044 337.713 382.447 337.745 381.851C337.815 380.615 338.352 379.452 339.249 378.599C340.145 377.745 341.333 377.265 342.57 377.255C343.166 377.25 343.757 377.367 344.306 377.599C344.855 377.831 345.35 378.172 345.762 378.603C346.174 379.033 346.493 379.544 346.701 380.102C346.908 380.661 346.999 381.256 346.967 381.851Z" fill="#263238"/>
<path d="M367.68 381.851C367.61 383.087 367.072 384.25 366.176 385.103C365.28 385.957 364.092 386.437 362.854 386.447C362.258 386.45 361.668 386.331 361.12 386.099C360.571 385.867 360.075 385.525 359.663 385.095C359.25 384.665 358.929 384.156 358.719 383.598C358.509 383.041 358.415 382.446 358.442 381.851C358.516 380.617 359.054 379.456 359.95 378.603C360.846 377.75 362.031 377.268 363.268 377.255C363.865 377.248 364.457 377.363 365.008 377.594C365.559 377.825 366.056 378.166 366.47 378.597C366.883 379.028 367.204 379.539 367.412 380.099C367.62 380.658 367.711 381.255 367.68 381.851Z" fill="#263238"/>
<path d="M388.301 381.851C388.227 383.086 387.688 384.246 386.793 385.099C385.897 385.952 384.711 386.434 383.475 386.447C382.879 386.45 382.289 386.331 381.74 386.099C381.191 385.866 380.696 385.525 380.283 385.095C379.87 384.665 379.55 384.156 379.34 383.598C379.13 383.041 379.036 382.446 379.063 381.851C379.136 380.616 379.675 379.456 380.571 378.603C381.466 377.75 382.652 377.268 383.888 377.255C384.485 377.25 385.076 377.367 385.626 377.599C386.175 377.83 386.672 378.172 387.085 378.602C387.498 379.032 387.819 379.542 388.028 380.101C388.237 380.66 388.33 381.255 388.301 381.851Z" fill="#263238"/>
<path d="M409.044 381.851C408.97 383.086 408.432 384.246 407.536 385.099C406.641 385.952 405.455 386.434 404.218 386.447C403.621 386.454 403.029 386.339 402.478 386.108C401.928 385.877 401.43 385.536 401.017 385.105C400.603 384.674 400.282 384.163 400.074 383.603C399.866 383.044 399.775 382.447 399.806 381.851C399.876 380.615 400.414 379.452 401.31 378.599C402.207 377.745 403.394 377.265 404.632 377.255C405.228 377.25 405.82 377.367 406.369 377.599C406.919 377.83 407.416 378.172 407.829 378.602C408.242 379.032 408.563 379.542 408.772 380.101C408.981 380.66 409.073 381.255 409.044 381.851Z" fill="#263238"/>
<path d="M405.909 194.634C412.321 188.363 412.661 178.312 406.669 172.184C400.676 166.057 390.62 166.172 384.208 172.443C377.796 178.713 377.455 188.764 383.448 194.892C389.44 201.02 399.496 200.905 405.909 194.634Z" fill="#394689"/>
<path d="M425.191 219.735C421.374 224.735 416.462 228.795 410.832 231.602C405.202 234.409 399.004 235.889 392.713 235.928C386.612 235.98 380.593 234.53 375.186 231.706C369.778 228.882 365.148 224.771 361.705 219.735C369.151 212.32 380.932 207.479 393.984 207.479C407.037 207.479 418.404 212.32 425.191 219.735Z" fill="#394689"/>
<path opacity="0.1" d="M405.909 194.634C412.321 188.363 412.661 178.312 406.669 172.184C400.676 166.057 390.62 166.172 384.208 172.443C377.796 178.713 377.455 188.764 383.448 194.892C389.44 201.02 399.496 200.905 405.909 194.634Z" fill="white"/>
<path opacity="0.1" d="M425.191 219.735C421.374 224.735 416.462 228.795 410.832 231.602C405.202 234.409 399.004 235.889 392.713 235.928C386.612 235.98 380.593 234.53 375.186 231.706C369.778 228.882 365.148 224.771 361.705 219.735C369.151 212.32 380.932 207.479 393.984 207.479C407.037 207.479 418.404 212.32 425.191 219.735Z" fill="white"/>
<path d="M199.788 325.458C198.333 328.645 196.801 332.153 195.468 335.554C194.135 338.955 192.772 342.463 191.592 345.956C189.183 352.84 187.349 359.911 186.107 367.098L185.77 369.35C185.738 369.736 185.774 370.125 185.878 370.499C186.239 371.769 186.809 372.97 187.563 374.053C189.53 376.858 191.812 379.428 194.365 381.713C197.056 384.216 199.879 386.574 202.821 388.776C205.763 391.043 208.858 393.249 211.906 395.333L209.041 400.71C201.762 397.538 194.852 393.577 188.436 388.898C185.013 386.402 181.924 383.478 179.244 380.196C177.655 378.243 176.417 376.03 175.583 373.655C175.098 372.171 174.849 370.62 174.847 369.059C174.847 368.691 174.847 368.155 174.847 367.894V367.144L175 365.612C175.879 357.63 177.557 349.757 180.01 342.111C181.205 338.342 182.477 334.589 183.932 330.927C185.387 327.266 186.889 323.681 188.742 319.958L199.788 325.458Z" fill="#E58A7B"/>
<path d="M209.746 394.383L220.577 388.898L217.774 400.786C217.774 400.786 210.344 402.87 206.897 399.254L209.746 394.383Z" fill="#E58A7B"/>
<path d="M230.49 390.844L227.609 400.679L217.774 400.786L220.577 388.898L230.49 390.844Z" fill="#E58A7B"/>
<path d="M245.779 268.1C246.358 270.223 247.164 272.278 248.184 274.228C247.886 274.566 247.502 274.817 247.074 274.954C246.645 275.092 246.187 275.111 245.748 275.009L245.779 268.1Z" fill="#DF5753"/>
<path d="M245.457 268.192C246.092 268.192 246.606 267.403 246.606 266.43C246.606 265.457 246.092 264.668 245.457 264.668C244.823 264.668 244.308 265.457 244.308 266.43C244.308 267.403 244.823 268.192 245.457 268.192Z" fill="#263238"/>
<path d="M245.12 264.73L247.449 264.071C247.449 264.071 246.315 265.879 245.12 264.73Z" fill="#263238"/>
<path d="M215.859 279.345C217.253 286.469 218.647 299.537 213.653 304.301C213.653 304.301 215.614 311.532 228.866 311.532C243.435 311.532 235.821 304.301 235.821 304.301C227.87 302.401 228.069 296.503 229.463 290.957L215.859 279.345Z" fill="#E58A7B"/>
<path d="M211.983 263.106C212.718 275.009 212.78 280.065 218.785 286.178C227.839 295.37 242.301 291.877 245.135 280.05C247.694 269.326 246.07 251.677 234.411 246.943C231.852 245.889 229.067 245.505 226.318 245.828C223.569 246.15 220.948 247.169 218.702 248.787C216.457 250.405 214.661 252.569 213.485 255.075C212.31 257.58 211.792 260.344 211.983 263.106Z" fill="#E58A7B"/>
<path d="M213.163 249.716C207.188 251.891 199.221 250.268 202.347 268.697C205.656 288.215 200.57 294.634 200.57 294.634C200.57 294.634 223.228 299.46 246.361 294.343C246.361 294.343 239.299 281.995 241.275 272.895C243.803 261.405 241.811 257.162 241.811 257.162C241.811 257.162 221.558 246.652 213.163 249.716Z" fill="#263238"/>
<path d="M238.44 269.31C238.447 271.574 239.095 273.789 240.309 275.699C241.933 278.181 243.848 277.231 244.323 274.596C244.752 272.282 244.431 268.192 242.362 266.599C240.294 265.005 238.471 266.568 238.44 269.31Z" fill="#E58A7B"/>
<path d="M207.969 251.723C206.253 246.897 214.434 239.467 231.746 242.531C249.057 245.595 249.808 260.011 249.808 260.011L246.315 255.844L246.468 260.226L228.682 263.642L207.969 251.723Z" fill="#263238"/>
<path d="M209.44 305.113C209.338 304.414 209.513 303.702 209.928 303.13C210.343 302.557 210.965 302.17 211.661 302.049C217.054 301.161 229.31 299.353 235.469 300.211C240.065 300.854 241.259 303.52 241.459 305.711C241.49 306.094 241.439 306.48 241.308 306.842C241.178 307.204 240.972 307.534 240.703 307.81C240.435 308.086 240.11 308.301 239.752 308.441C239.393 308.581 239.009 308.642 238.624 308.621L211.998 307.426C211.371 307.395 210.773 307.147 210.307 306.726C209.841 306.304 209.534 305.734 209.44 305.113Z" fill="#394689"/>
<path opacity="0.6" d="M209.44 305.113C209.338 304.414 209.513 303.702 209.928 303.13C210.343 302.557 210.965 302.17 211.661 302.049C217.054 301.161 229.31 299.353 235.469 300.211C240.065 300.854 241.259 303.52 241.459 305.711C241.49 306.094 241.439 306.48 241.308 306.842C241.178 307.204 240.972 307.534 240.703 307.81C240.435 308.086 240.11 308.301 239.752 308.441C239.393 308.581 239.009 308.642 238.624 308.621L211.998 307.426C211.371 307.395 210.773 307.147 210.307 306.726C209.841 306.304 209.534 305.734 209.44 305.113Z" fill="black"/>
<path d="M224.836 572.753L234.718 579.617L251.248 557.204L241.367 550.356L224.836 572.753Z" fill="#E58A7B"/>
<path d="M201.795 572.309L212.228 578.253L226.859 554.553L216.426 548.609L201.795 572.309Z" fill="#E58A7B"/>
<path d="M251.233 557.204L242.715 568.755L232.833 561.907L241.351 550.356L251.233 557.204Z" fill="#CF6F64"/>
<path d="M216.41 548.609L226.858 554.569L219.321 566.779L208.873 560.819L216.41 548.609Z" fill="#CF6F64"/>
<path d="M233.171 379.936C233.171 379.936 271.746 428.546 264.5 475.043C258.663 512.592 224.806 563.439 224.806 563.439L208.888 555.534C220.108 533.052 229.682 509.786 237.537 485.92C239.959 478.51 240.666 470.647 239.604 462.924C238.543 455.201 235.74 447.82 231.409 441.339C211.86 412.797 180.546 429.787 201.611 379.936H233.171Z" fill="#394689"/>
<path opacity="0.6" d="M233.171 379.936C233.171 379.936 271.746 428.546 264.5 475.043C258.663 512.592 224.806 563.439 224.806 563.439L208.888 555.534C220.108 533.052 229.682 509.786 237.537 485.92C239.959 478.51 240.666 470.647 239.604 462.924C238.543 455.201 235.74 447.82 231.409 441.339C211.86 412.797 180.546 429.787 201.611 379.936H233.171Z" fill="black"/>
<path opacity="0.4" d="M252.091 411.158L246.484 405.582C246.484 406.026 257.346 473.082 260.394 491.925C262.193 486.421 263.571 480.787 264.515 475.073C268.1 452.262 260.609 428.96 252.091 411.158Z" fill="black"/>
<path d="M250.39 379.936C250.39 379.936 296.84 441.032 298.158 477.662C299.246 508.302 247.602 567.667 247.602 567.667L232.588 557.954C232.588 557.954 262.815 515.794 270.429 481.354C267.487 447.221 205.288 379.936 205.288 379.936H250.39Z" fill="#394689"/>
<path opacity="0.6" d="M250.39 379.936C250.39 379.936 296.84 441.032 298.158 477.662C299.246 508.302 247.602 567.667 247.602 567.667L232.588 557.954C232.588 557.954 262.815 515.794 270.429 481.354C267.487 447.221 205.288 379.936 205.288 379.936H250.39Z" fill="black"/>
<path d="M192.925 307.028C187.961 308.208 183.197 326.255 183.197 326.255L202.607 339.215C202.607 339.215 209.072 324.937 206.805 318.687C204.461 312.176 199.16 305.542 192.925 307.028Z" fill="#394689"/>
<path opacity="0.2" d="M196.724 318.656L195.376 334.39L202.592 339.231C204.584 334.745 206.059 330.048 206.989 325.228L196.724 318.656Z" fill="black"/>
<path d="M256.135 307.38C256.135 307.38 261.865 309.387 250.39 379.921H201.581C202.408 360.005 202.423 347.749 192.925 307.028C199.759 305.62 206.687 304.708 213.653 304.301C221.033 303.772 228.441 303.772 235.821 304.301C245.35 305.174 256.135 307.38 256.135 307.38Z" fill="#394689"/>
<path d="M261.099 318.656C262.202 321.72 263.366 325.014 264.592 328.185C265.817 331.356 266.982 334.619 268.223 337.837L271.976 347.458L272.926 349.863L273.416 351.058L273.646 351.655C273.646 351.763 273.646 351.763 273.646 351.747C273.366 351.353 272.999 351.028 272.574 350.797C271.967 350.441 271.284 350.236 270.582 350.2C269.998 350.182 269.418 350.292 268.881 350.522C268.177 350.843 268.177 350.981 268.192 350.966C268.319 350.864 268.433 350.745 268.529 350.614C269.377 349.5 270.111 348.304 270.72 347.044C271.44 345.635 272.129 344.133 272.819 342.616C274.167 339.552 275.408 336.381 276.649 333.179C277.89 329.977 279.069 326.745 280.218 323.482L283.711 313.708L289.609 315.24C288.445 322.226 286.944 329.028 285.136 335.952C284.263 339.399 283.236 342.816 282.072 346.263C281.49 347.994 280.846 349.71 280.111 351.471C279.345 353.384 278.401 355.22 277.292 356.956C276.885 357.54 276.434 358.093 275.944 358.611C275.162 359.456 274.212 360.129 273.156 360.587C272.218 360.989 271.203 361.178 270.184 361.138C269.042 361.096 267.929 360.764 266.951 360.173C265.797 359.453 264.839 358.458 264.163 357.278C263.933 356.879 263.734 356.481 263.596 356.19L263.305 355.608L262.723 354.413L261.558 352.038C260.026 348.852 258.494 345.635 257.162 342.402C255.829 339.169 254.419 335.891 253.102 332.597C251.784 329.303 250.605 326.01 249.486 322.455L261.099 318.656Z" fill="#E58A7B"/>
<path d="M256.135 307.38C262.003 308.775 268.606 326.117 268.606 326.117L251.156 340.962C251.156 340.962 239.865 322.057 242.148 315.822C244.523 309.326 248.475 305.557 256.135 307.38Z" fill="#394689"/>
<path d="M286.484 308.223L292.612 303.106L296.871 309.74L293.73 315.27C293.73 315.27 288.736 319.866 284.324 317.522C283.624 315.948 283.456 314.189 283.846 312.511C284.235 310.833 285.162 309.327 286.484 308.223Z" fill="#E58A7B"/>
<path d="M303.673 303.122L303.214 304.791L293.516 306.415L292.566 303.106L303.673 303.122Z" fill="#E58A7B"/>
<path d="M248.797 568.449L231.302 557.142L234.442 551.688L254.098 563.776L248.797 568.449Z" fill="#394689"/>
<path d="M219.076 577.457C217.541 577.269 216.066 576.746 214.756 575.925C214.702 575.906 214.655 575.871 214.622 575.824C214.588 575.777 214.571 575.722 214.571 575.664C214.571 575.607 214.588 575.551 214.622 575.505C214.655 575.458 214.702 575.423 214.756 575.404C215.231 575.251 219.352 573.979 220.547 574.96C220.681 575.071 220.783 575.217 220.842 575.381C220.902 575.545 220.916 575.722 220.884 575.894C220.862 576.17 220.771 576.436 220.618 576.666C220.465 576.897 220.256 577.085 220.01 577.212C219.724 577.368 219.403 577.452 219.076 577.457ZM215.629 575.772C217.544 576.752 219.076 577.104 219.811 576.737C219.971 576.648 220.106 576.52 220.203 576.364C220.299 576.209 220.354 576.031 220.363 575.848C220.363 575.603 220.363 575.496 220.225 575.435C219.581 574.914 217.283 575.312 215.598 575.772H215.629Z" fill="#263238"/>
<path d="M214.863 576.032C214.782 576.031 214.705 575.998 214.649 575.94C214.626 575.898 214.614 575.85 214.614 575.802C214.614 575.754 214.626 575.707 214.649 575.664C214.649 575.526 215.644 572.202 217.207 571.451C217.407 571.36 217.623 571.313 217.843 571.313C218.062 571.313 218.279 571.36 218.479 571.451C218.694 571.519 218.88 571.657 219.008 571.843C219.135 572.029 219.197 572.253 219.183 572.478C219.076 573.857 216.272 575.756 214.986 576.078L214.863 576.032ZM217.835 571.85C217.686 571.854 217.54 571.891 217.406 571.957C216.456 572.416 215.675 574.209 215.292 575.297C216.64 574.73 218.494 573.228 218.555 572.386C218.555 572.248 218.555 572.079 218.203 571.926C218.088 571.865 217.964 571.823 217.835 571.804V571.85Z" fill="#263238"/>
<path d="M240.938 584.075C239.206 584.075 236.801 581.854 235.484 580.49C235.45 580.443 235.432 580.387 235.432 580.329C235.432 580.272 235.45 580.215 235.484 580.168C235.514 580.119 235.557 580.079 235.608 580.052C235.659 580.025 235.717 580.012 235.775 580.015C236.388 580.015 241.704 580.812 242.454 582.313C242.534 582.448 242.576 582.601 242.576 582.758C242.576 582.914 242.534 583.067 242.454 583.202C242.342 583.436 242.172 583.637 241.96 583.787C241.748 583.937 241.502 584.031 241.244 584.06L240.938 584.075ZM236.495 580.705C238.425 582.574 240.126 583.615 241.091 583.493C241.26 583.471 241.421 583.408 241.56 583.309C241.699 583.21 241.811 583.078 241.887 582.926C241.922 582.874 241.94 582.812 241.94 582.75C241.94 582.687 241.922 582.626 241.887 582.574C241.489 581.746 238.655 581.042 236.495 580.705Z" fill="#263238"/>
<path d="M236.663 580.628C236.32 580.638 235.976 580.612 235.637 580.551C235.59 580.544 235.545 580.525 235.507 580.496C235.47 580.466 235.441 580.427 235.423 580.383C235.4 580.338 235.388 580.288 235.388 580.237C235.388 580.187 235.4 580.137 235.423 580.092C235.514 579.985 237.583 577.487 239.544 577.319C240.099 577.276 240.649 577.452 241.076 577.809C241.673 578.33 241.642 578.79 241.489 579.081C241.106 580.122 238.456 580.628 236.663 580.628ZM236.265 580.061C237.981 580.153 240.723 579.586 241.076 578.836C241.076 578.836 241.198 578.59 240.8 578.253C240.641 578.116 240.456 578.012 240.256 577.949C240.056 577.885 239.844 577.864 239.636 577.886C238.315 578.254 237.138 579.019 236.265 580.077V580.061Z" fill="#263238"/>
<path d="M215.277 574.377L202.285 570.701C202.061 570.633 201.82 570.65 201.608 570.749C201.396 570.848 201.228 571.022 201.136 571.237L196.755 581.088C196.652 581.34 196.604 581.611 196.613 581.883C196.622 582.156 196.689 582.423 196.81 582.668C196.93 582.912 197.1 583.128 197.31 583.302C197.52 583.476 197.764 583.604 198.026 583.677C202.622 584.872 204.828 585.209 210.543 586.848C214.066 587.828 219.091 589.652 223.948 591.03C228.804 592.409 230.428 587.675 228.544 586.664C220.026 582.16 219.352 579.004 217.023 575.634C216.606 575.023 215.988 574.579 215.277 574.377Z" fill="#394689"/>
<path d="M235.836 578.698L224.745 571.038C224.556 570.901 224.325 570.837 224.093 570.86C223.862 570.883 223.646 570.989 223.488 571.16L216.135 579.065C215.956 579.27 215.822 579.51 215.743 579.77C215.663 580.03 215.64 580.304 215.675 580.573C215.71 580.843 215.802 581.102 215.944 581.333C216.087 581.564 216.277 581.763 216.502 581.915C220.409 584.535 222.431 585.592 227.318 588.977C230.382 591.061 236.311 595.688 240.448 598.568C244.584 601.448 247.663 597.495 246.193 595.933C239.605 588.901 238.165 584.489 237.077 580.49C236.888 579.765 236.449 579.13 235.836 578.698Z" fill="#394689"/>
<path d="M226.843 564.45L206.851 554.507L208.919 549.084L230.275 559.563L226.843 564.45Z" fill="#394689"/>
<path d="M200.845 377.056L199.16 381.468C198.992 381.805 199.39 382.157 199.957 382.157H250.635C251.08 382.157 251.447 381.943 251.478 381.667L251.907 377.286C251.907 376.995 251.554 376.734 251.08 376.734H201.642C201.493 376.72 201.343 376.742 201.204 376.798C201.066 376.854 200.943 376.942 200.845 377.056Z" fill="#394689"/>
<path opacity="0.4" d="M200.845 377.056L199.16 381.468C198.992 381.805 199.39 382.157 199.957 382.157H250.635C251.08 382.157 251.447 381.943 251.478 381.667L251.907 377.286C251.907 376.995 251.554 376.734 251.08 376.734H201.642C201.493 376.72 201.343 376.742 201.204 376.798C201.066 376.854 200.943 376.942 200.845 377.056Z" fill="white"/>
<path d="M208.827 382.586H207.494C207.234 382.586 207.035 382.448 207.05 382.28L207.678 376.596C207.678 376.443 207.923 376.305 208.184 376.305H209.516C209.777 376.305 209.976 376.443 209.961 376.596L209.333 382.28C209.317 382.448 209.087 382.586 208.827 382.586Z" fill="#394689"/>
<path d="M240.08 382.586H238.762C238.502 382.586 238.303 382.448 238.318 382.28L238.931 376.596C238.931 376.443 239.191 376.305 239.452 376.305H240.769C241.03 376.305 241.244 376.443 241.213 376.596L240.601 382.28C240.524 382.448 240.356 382.586 240.08 382.586Z" fill="#394689"/>
<g style="mix-blend-mode:multiply">
<path d="M207.663 642.031C230.33 642.031 248.705 640.7 248.705 639.059C248.705 637.417 230.33 636.086 207.663 636.086C184.996 636.086 166.62 637.417 166.62 639.059C166.62 640.7 184.996 642.031 207.663 642.031Z" fill="#F5F5F5"/>
</g>
<path d="M232.665 634.861C225.403 632.747 217.345 630.035 212.473 627.201C212.335 627.109 212.182 627.063 212.044 626.986V594.11H226.736C227.851 594.044 228.899 593.554 229.665 592.741C230.432 591.928 230.859 590.853 230.859 589.736C230.859 588.619 230.432 587.544 229.665 586.73C228.899 585.917 227.851 585.428 226.736 585.362H212.121V435.502H203.296V585.362H188.696C188.1 585.327 187.503 585.414 186.942 585.617C186.381 585.821 185.867 586.138 185.432 586.547C184.998 586.957 184.651 587.451 184.415 587.999C184.178 588.548 184.056 589.139 184.056 589.736C184.056 590.333 184.178 590.924 184.415 591.472C184.651 592.02 184.998 592.515 185.432 592.924C185.867 593.334 186.381 593.65 186.942 593.854C187.503 594.058 188.1 594.145 188.696 594.11H203.296V626.94C203.158 626.94 203.021 627.063 202.883 627.155C197.934 630.035 189.937 632.747 182.676 634.815C182.185 634.963 181.764 635.282 181.488 635.714C181.213 636.146 181.101 636.663 181.173 637.17C181.245 637.677 181.497 638.142 181.882 638.48C182.267 638.818 182.761 639.007 183.273 639.013H232.067C232.557 638.979 233.02 638.779 233.38 638.445C233.74 638.111 233.975 637.664 234.044 637.178C234.114 636.692 234.016 636.197 233.764 635.776C233.513 635.354 233.125 635.031 232.665 634.861Z" fill="#E0E0E0"/>
<path d="M234.917 420.243H180.439C176.056 420.243 172.503 423.796 172.503 428.179V444.372C172.503 448.755 176.056 452.308 180.439 452.308H234.917C239.3 452.308 242.853 448.755 242.853 444.372V428.179C242.853 423.796 239.3 420.243 234.917 420.243Z" fill="#394689"/>
<path d="M179.933 452.323V455.111C179.933 457.409 182.431 459.278 185.495 459.278H229.923C232.987 459.278 235.484 457.409 235.484 455.111V452.323H179.933Z" fill="#394689"/>
<path opacity="0.3" d="M179.933 452.323V455.111C179.933 457.409 182.431 459.278 185.495 459.278H229.923C232.987 459.278 235.484 457.409 235.484 455.111V452.323H179.933Z" fill="white"/>
</svg>
