<svg width="766" height="766" viewBox="0 0 766 766" fill="none" xmlns="http://www.w3.org/2000/svg">
<path d="M766 585.837H0V586.22H766V585.837Z" fill="#EBEBEB"/>
<path d="M689.247 610.487H638.507V610.87H689.247V610.487Z" fill="#EBEBEB"/>
<path d="M507.429 614.654H494.116V615.037H507.429V614.654Z" fill="#EBEBEB"/>
<path d="M636.975 596.27H607.576V596.653H636.975V596.27Z" fill="#EBEBEB"/>
<path d="M146.536 598.844H80.3688V599.227H146.536V598.844Z" fill="#EBEBEB"/>
<path d="M169.883 598.844H160.186V599.227H169.883V598.844Z" fill="#EBEBEB"/>
<path d="M344.93 605.308H201.412V605.691H344.93V605.308Z" fill="#EBEBEB"/>
<path d="M363.084 517.51H67.2701C64.9527 517.506 62.7317 516.582 61.0945 514.942C59.4572 513.302 58.5377 511.079 58.5377 508.762V92.9311C58.5579 90.627 59.4863 88.4239 61.1214 86.8004C62.7564 85.1768 64.9659 84.2639 67.2701 84.26H363.084C365.404 84.26 367.629 85.1816 369.27 86.8222C370.91 88.4627 371.832 90.6877 371.832 93.0077V508.762C371.832 511.082 370.91 513.307 369.27 514.947C367.629 516.588 365.404 517.51 363.084 517.51ZM67.2701 84.5664C65.0543 84.5705 62.9306 85.4535 61.3653 87.0218C59.7999 88.59 58.9207 90.7153 58.9207 92.9311V508.762C58.9207 510.978 59.7999 513.103 61.3653 514.671C62.9306 516.239 65.0543 517.123 67.2701 517.127H363.084C365.301 517.123 367.426 516.24 368.994 514.672C370.562 513.104 371.445 510.979 371.449 508.762V92.9311C371.445 90.7139 370.562 88.5887 368.994 87.0208C367.426 85.453 365.301 84.5705 363.084 84.5664H67.2701Z" fill="#EBEBEB"/>
<path d="M694.471 517.51H398.642C396.323 517.506 394.1 516.583 392.461 514.943C390.821 513.303 389.898 511.081 389.894 508.762V92.9311C389.918 90.6256 390.85 88.4226 392.488 86.7994C394.125 85.1763 396.336 84.2639 398.642 84.26H694.471C696.772 84.268 698.978 85.1826 700.61 86.8058C702.242 88.4289 703.168 90.6297 703.188 92.9311V508.762C703.188 511.077 702.271 513.297 700.637 514.937C699.003 516.576 696.786 517.501 694.471 517.51ZM398.642 84.5664C396.425 84.5705 394.299 85.453 392.731 87.0208C391.164 88.5887 390.281 90.7139 390.277 92.9311V508.762C390.281 510.979 391.164 513.104 392.731 514.672C394.299 516.24 396.425 517.123 398.642 517.127H694.471C696.688 517.123 698.813 516.24 700.381 514.672C701.949 513.104 702.832 510.979 702.836 508.762V92.9311C702.832 90.7139 701.949 88.5887 700.381 87.0208C698.813 85.453 696.688 84.5705 694.471 84.5664H398.642Z" fill="#EBEBEB"/>
<path d="M371.265 266.384H153.751V585.301H371.265V266.384Z" fill="#F0F0F0"/>
<path d="M363.574 276.419H161.427V335.324H363.574V276.419Z" fill="#E0E0E0"/>
<path d="M172.917 285.948H161.427V335.309H172.917V285.948Z" fill="#EBEBEB"/>
<path d="M228.452 285.948H216.962V335.309H228.452V285.948Z" fill="#EBEBEB"/>
<path d="M291.481 284.708L280.158 286.66L288.543 335.303L299.866 333.352L291.481 284.708Z" fill="#EBEBEB"/>
<path d="M187.149 292.459H175.659V335.324H187.149V292.459Z" fill="#EBEBEB"/>
<path d="M213.545 292.459H202.055V335.324H213.545V292.459Z" fill="#EBEBEB"/>
<path d="M280.172 292.459H268.682V335.324H280.172V292.459Z" fill="#EBEBEB"/>
<path d="M243.544 290.971L232.328 293.464L241.627 335.309L252.844 332.816L243.544 290.971Z" fill="#EBEBEB"/>
<path d="M197.077 283.497H191.332V335.309H197.077V283.497Z" fill="#EBEBEB"/>
<path d="M265.373 283.497H259.628V335.309H265.373V283.497Z" fill="#EBEBEB"/>
<path d="M161.442 403.559H363.59V344.654H161.442V403.559Z" fill="#E0E0E0"/>
<path d="M352.084 403.544H363.574V354.183H352.084V403.544Z" fill="#EBEBEB"/>
<path d="M296.565 403.544H308.055V354.183H296.565V403.544Z" fill="#EBEBEB"/>
<path d="M225.154 401.583L236.477 403.534L244.861 354.891L233.538 352.939L225.154 401.583Z" fill="#EBEBEB"/>
<path d="M337.852 403.559H349.342V360.694H337.852V403.559Z" fill="#EBEBEB"/>
<path d="M311.471 403.559H322.961V360.694H311.471V403.559Z" fill="#EBEBEB"/>
<path d="M244.844 403.559H256.334V360.694H244.844V403.559Z" fill="#EBEBEB"/>
<path d="M272.21 401.055L283.427 403.548L292.726 361.703L281.51 359.211L272.21 401.055Z" fill="#EBEBEB"/>
<path d="M327.925 403.544H333.67V351.732H327.925V403.544Z" fill="#EBEBEB"/>
<path d="M259.643 403.544H265.388V351.732H259.643V403.544Z" fill="#EBEBEB"/>
<path d="M172.917 354.183H161.427V403.544H172.917V354.183Z" fill="#EBEBEB"/>
<path d="M187.149 360.679H175.659V403.544H187.149V360.679Z" fill="#EBEBEB"/>
<path d="M213.545 360.679H202.055V403.544H213.545V360.679Z" fill="#EBEBEB"/>
<path d="M197.077 351.732H191.332V403.544H197.077V351.732Z" fill="#EBEBEB"/>
<path d="M363.574 412.874H161.427V471.779H363.574V412.874Z" fill="#E0E0E0"/>
<path d="M288.951 422.403H277.461V471.764H288.951V422.403Z" fill="#EBEBEB"/>
<path d="M351.989 421.16L340.666 423.111L349.051 471.755L360.374 469.803L351.989 421.16Z" fill="#EBEBEB"/>
<path d="M247.648 428.914H236.158V471.779H247.648V428.914Z" fill="#EBEBEB"/>
<path d="M274.044 428.914H262.554V471.779H274.044V428.914Z" fill="#EBEBEB"/>
<path d="M340.671 428.914H329.181V471.779H340.671V428.914Z" fill="#EBEBEB"/>
<path d="M304.048 427.429L292.831 429.921L302.131 471.766L313.347 469.273L304.048 427.429Z" fill="#EBEBEB"/>
<path d="M257.575 419.952H251.83V471.764H257.575V419.952Z" fill="#EBEBEB"/>
<path d="M325.872 419.952H320.127V471.764H325.872V419.952Z" fill="#EBEBEB"/>
<path d="M219.874 421.171L208.551 423.123L216.936 471.766L228.259 469.815L219.874 421.171Z" fill="#EBEBEB"/>
<path d="M208.551 428.914H197.061V471.779H208.551V428.914Z" fill="#EBEBEB"/>
<path d="M171.934 427.428L160.718 429.921L170.017 471.765L181.234 469.273L171.934 427.428Z" fill="#EBEBEB"/>
<path d="M193.767 419.952H188.022V471.764H193.767V419.952Z" fill="#EBEBEB"/>
<path d="M116.217 586.128H153.751L153.751 266.384H116.217L116.217 586.128Z" fill="#E0E0E0"/>
<path d="M498.574 577.778H466.693L483.453 441.216C483.855 438.363 485.257 435.745 487.409 433.829C489.561 431.912 492.323 430.822 495.204 430.752H634.248L613.857 577.717L498.574 577.778Z" fill="#F5F5F5"/>
<path d="M599.686 577.778H631.567L648.342 441.216C648.547 439.903 648.461 438.562 648.09 437.286C647.719 436.01 647.072 434.831 646.195 433.833C645.318 432.835 644.233 432.042 643.015 431.509C641.798 430.977 640.479 430.719 639.15 430.752H628.197C625.321 430.84 622.569 431.937 620.421 433.85C618.272 435.763 616.865 438.37 616.446 441.216L599.686 577.778Z" fill="#F0F0F0"/>
<path d="M587.951 577.564L593.727 511.535C593.848 510.102 594.458 508.755 595.453 507.718C596.449 506.681 597.77 506.016 599.196 505.836L601.57 505.529C603.487 505.29 605.263 504.397 606.599 503.002C607.936 501.607 608.751 499.795 608.909 497.869L609.966 485.828C610.07 484.66 609.93 483.484 609.555 482.374C609.179 481.264 608.577 480.244 607.786 479.379C606.994 478.514 606.032 477.824 604.959 477.351C603.886 476.879 602.727 476.635 601.555 476.636H654.838C656.01 476.635 657.169 476.879 658.242 477.351C659.315 477.824 660.277 478.514 661.069 479.379C661.86 480.244 662.462 481.264 662.838 482.374C663.213 483.484 663.353 484.66 663.249 485.828L662.192 497.869C662.034 499.795 661.219 501.607 659.882 503.002C658.546 504.397 656.77 505.29 654.853 505.529L652.479 505.836C651.054 506.019 649.734 506.684 648.739 507.721C647.744 508.758 647.134 510.103 647.009 511.535L641.234 577.564C641.027 579.884 639.96 582.044 638.242 583.617C636.524 585.191 634.28 586.064 631.95 586.067H578.667C580.997 586.064 583.241 585.191 584.959 583.617C586.677 582.044 587.744 579.884 587.951 577.564Z" fill="#E6E6E6"/>
<path d="M441.308 495.066C440.886 490.054 438.596 485.383 434.894 481.978C431.191 478.573 426.345 476.683 421.315 476.682H467.704C472.721 476.702 477.548 478.601 481.234 482.004C484.921 485.407 487.199 490.067 487.62 495.066L492.216 547.399H445.889L441.308 495.066Z" fill="#E6E6E6"/>
<path d="M400.71 476.743H421.3C426.33 476.745 431.176 478.635 434.879 482.039C438.581 485.444 440.87 490.115 441.293 495.127L445.889 547.46H556.376L560.972 495.127C561.39 490.127 563.667 485.465 567.354 482.061C571.042 478.658 575.871 476.76 580.888 476.743H601.494C602.666 476.743 603.825 476.986 604.898 477.459C605.971 477.931 606.933 478.621 607.724 479.486C608.516 480.351 609.118 481.371 609.493 482.481C609.869 483.591 610.009 484.768 609.904 485.935L608.847 497.977C608.69 499.902 607.875 501.714 606.538 503.109C605.202 504.504 603.426 505.397 601.509 505.637L599.135 505.943C597.708 506.124 596.387 506.788 595.392 507.825C594.397 508.862 593.787 510.21 593.665 511.642L587.951 577.564C587.744 579.884 586.677 582.044 584.959 583.617C583.241 585.191 580.997 586.064 578.667 586.067H423.598C421.268 586.064 419.024 585.191 417.306 583.617C415.588 582.044 414.521 579.884 414.314 577.564L408.538 511.535C408.411 510.104 407.8 508.76 406.805 507.724C405.811 506.688 404.493 506.022 403.069 505.836L400.695 505.529C398.777 505.287 397.001 504.395 395.662 503C394.324 501.606 393.505 499.795 393.341 497.869L392.299 485.828C392.211 484.669 392.362 483.504 392.745 482.407C393.127 481.309 393.732 480.303 394.522 479.45C395.311 478.597 396.268 477.916 397.333 477.451C398.398 476.985 399.548 476.744 400.71 476.743Z" fill="#F0F0F0"/>
<path d="M156.509 250.451C156.509 250.451 154.809 239.252 162.974 232.067C171.14 224.882 170.42 220.623 168.076 220.072C165.732 219.52 163.602 226.69 160.017 228.666C160.017 228.666 159.895 218.433 163.541 214.679C167.187 210.926 169.102 201.198 165.625 201.029C162.147 200.861 161.81 206.789 161.029 211.002C160.247 215.215 156.433 221.129 156.433 221.129C156.433 221.129 155.682 211.937 153.369 208.214C151.055 204.491 157.29 195.836 154.901 192.082C152.511 188.329 148.175 195.483 148.527 203.557C148.88 211.63 154.272 220.24 153.016 228.666C153.016 228.666 150.642 222.737 148.512 222.201C146.383 221.665 144.223 217.758 142.798 216.303C141.373 214.848 139.565 219.873 142.798 224.53C146.03 229.187 154.272 241.673 153.016 251.754L156.509 250.451Z" fill="#E6E6E6"/>
<path d="M161.381 245.35L164.062 262.125C164.254 263.343 164.181 264.588 163.846 265.775C163.511 266.962 162.923 268.062 162.122 269C161.321 269.937 160.327 270.69 159.207 271.207C158.087 271.723 156.869 271.991 155.636 271.991H152.786C151.553 271.991 150.335 271.723 149.215 271.207C148.095 270.69 147.101 269.937 146.3 269C145.499 268.062 144.911 266.962 144.576 265.775C144.241 264.588 144.168 263.343 144.36 262.125L147.072 245.35H161.381Z" fill="#E6E6E6"/>
<path d="M321.797 268.713H330.115V232.941H321.797V268.713Z" fill="#EBEBEB"/>
<path d="M281.566 268.713H289.885V232.941H281.566V268.713Z" fill="#EBEBEB"/>
<path d="M229.822 267.291L238.02 268.704L244.096 233.452L235.898 232.039L229.822 267.291Z" fill="#EBEBEB"/>
<path d="M311.486 268.697H319.805V237.644H311.486V268.697Z" fill="#EBEBEB"/>
<path d="M292.367 268.697H300.686V237.644H292.367V268.697Z" fill="#EBEBEB"/>
<path d="M244.078 268.697H252.397V237.644H244.078V268.697Z" fill="#EBEBEB"/>
<path d="M263.918 266.896L272.039 268.701L278.776 238.387L270.655 236.582L263.918 266.896Z" fill="#EBEBEB"/>
<path d="M304.286 268.713H308.453V231.163H304.286V268.713Z" fill="#EBEBEB"/>
<path d="M254.787 268.713H258.954V231.163H254.787V268.713Z" fill="#EBEBEB"/>
<path d="M225.127 240.31H184.575V268.299H225.127V240.31Z" fill="#EBEBEB"/>
<path d="M364.202 251.769H330.238V272.665H364.202V251.769Z" fill="#EBEBEB"/>
<path d="M356.267 233.4H339.277V254.297H356.267V233.4Z" fill="#EBEBEB"/>
<path d="M640.085 205.748H599.686V374.084H640.085V205.748Z" fill="#E0E0E0"/>
<path d="M484.664 374.543H635.749V205.763L484.664 205.763V374.543Z" fill="#E0E0E0"/>
<path d="M479.792 374.543H636.546V205.763L479.792 205.763V374.543Z" fill="#F0F0F0"/>
<path d="M486.502 366.776H630.112V211.125L486.502 211.125V366.776Z" fill="white"/>
<path d="M486.487 366.776H489.152V211.125H486.487V366.776Z" fill="#E0E0E0"/>
<path d="M488.723 323.068V327.266H630.495V323.068H488.723Z" fill="#E0E0E0"/>
<path d="M486.487 323.053H632.348V316.006H486.487V323.053Z" fill="#F0F0F0"/>
<path d="M383 655.022C547.05 655.022 680.04 647.258 680.04 637.68C680.04 628.102 547.05 620.337 383 620.337C218.95 620.337 85.9606 628.102 85.9606 637.68C85.9606 647.258 218.95 655.022 383 655.022Z" fill="#F5F5F5"/>
<path d="M493.227 234.12H219.137C212.944 234.12 207.923 239.141 207.923 245.334V568.066C207.923 574.259 212.944 579.28 219.137 579.28H493.227C499.421 579.28 504.442 574.259 504.442 568.066V245.334C504.442 239.141 499.421 234.12 493.227 234.12Z" fill="#394689"/>
<path opacity="0.6" d="M493.227 234.12H219.137C212.944 234.12 207.923 239.141 207.923 245.334V568.066C207.923 574.259 212.944 579.28 219.137 579.28H493.227C499.421 579.28 504.442 574.259 504.442 568.066V245.334C504.442 239.141 499.421 234.12 493.227 234.12Z" fill="white"/>
<path d="M456.413 392.422H255.967V426.739H456.413V392.422Z" fill="white"/>
<g opacity="0.4">
<path d="M273.891 412.92V413.824H266.936V403.988H273.677V404.877H267.978V408.385H273.064V409.259H267.978V412.92H273.891Z" fill="#263238"/>
<path d="M275.285 409.58H278.977V410.438H275.285V409.58Z" fill="#263238"/>
<path d="M293.393 409.534V413.824H292.398V409.626C292.398 408.094 291.616 407.267 290.283 407.267C289.938 407.251 289.593 407.31 289.273 407.442C288.953 407.573 288.665 407.772 288.43 408.026C288.195 408.28 288.019 408.582 287.913 408.912C287.807 409.241 287.774 409.589 287.817 409.933V413.824H286.806V409.626C286.806 408.094 286.025 407.267 284.676 407.267C284.331 407.251 283.986 407.31 283.666 407.442C283.346 407.573 283.058 407.772 282.823 408.026C282.588 408.28 282.412 408.582 282.306 408.912C282.2 409.241 282.167 409.589 282.21 409.933V413.824H281.199V406.424H282.164V407.772C282.453 407.321 282.856 406.953 283.331 406.706C283.807 406.458 284.34 406.34 284.876 406.363C285.417 406.317 285.959 406.44 286.428 406.714C286.897 406.988 287.27 407.401 287.495 407.895C287.801 407.401 288.234 406.999 288.749 406.729C289.264 406.46 289.841 406.333 290.421 406.363C290.837 406.331 291.255 406.393 291.644 406.545C292.032 406.696 292.382 406.932 292.667 407.237C292.952 407.541 293.166 407.905 293.291 408.303C293.417 408.701 293.452 409.121 293.393 409.534Z" fill="#263238"/>
<path d="M301.697 409.228V413.824H300.732V412.66C300.458 413.074 300.077 413.407 299.629 413.622C299.181 413.838 298.684 413.929 298.189 413.885C296.519 413.885 295.492 413.012 295.492 411.74C295.492 410.469 296.228 409.642 298.342 409.642H300.686V409.197C300.686 407.926 299.981 407.236 298.602 407.236C297.703 407.226 296.829 407.536 296.136 408.11L295.691 407.374C296.557 406.678 297.645 406.319 298.755 406.363C299.147 406.315 299.543 406.356 299.916 406.482C300.29 406.608 300.63 406.816 300.912 407.091C301.194 407.366 301.411 407.701 301.547 408.07C301.683 408.44 301.734 408.836 301.697 409.228ZM300.686 411.602V410.392H298.372C296.948 410.392 296.473 410.944 296.473 411.71C296.473 412.476 297.162 413.104 298.342 413.104C298.842 413.137 299.339 413.009 299.761 412.739C300.183 412.469 300.507 412.07 300.686 411.602Z" fill="#263238"/>
<path d="M304.179 404.096C304.181 404.001 304.201 403.908 304.239 403.821C304.277 403.735 304.332 403.656 304.4 403.591C304.469 403.525 304.549 403.474 304.637 403.44C304.725 403.406 304.82 403.389 304.914 403.391C305.007 403.389 305.099 403.405 305.185 403.439C305.271 403.472 305.35 403.522 305.417 403.586C305.484 403.65 305.537 403.727 305.575 403.812C305.612 403.897 305.632 403.988 305.634 404.08C305.636 404.176 305.619 404.271 305.584 404.361C305.548 404.45 305.496 404.531 305.429 404.599C305.362 404.668 305.282 404.722 305.193 404.759C305.105 404.797 305.01 404.816 304.914 404.816C304.818 404.818 304.723 404.801 304.634 404.765C304.545 404.73 304.463 404.677 304.395 404.61C304.326 404.543 304.272 404.463 304.235 404.375C304.198 404.286 304.179 404.191 304.179 404.096ZM304.409 406.424H305.404V413.824H304.409V406.424Z" fill="#263238"/>
<path d="M308.177 403.391H309.173V413.824H308.177V403.391Z" fill="#263238"/>
</g>
<path d="M456.413 439.301H255.967V473.618H456.413V439.301Z" fill="white"/>
<g opacity="0.4">
<path d="M274.626 454.284C274.626 456.383 273.094 457.654 270.613 457.654H267.978V460.718H266.936V450.883H270.613C273.11 450.914 274.626 452.185 274.626 454.284ZM273.585 454.284C273.585 452.752 272.558 451.817 270.521 451.817H267.916V456.735H270.521C272.558 456.735 273.585 455.831 273.585 454.284Z" fill="#263238"/>
<path d="M282.179 456.168V460.764H281.214V459.6C280.94 460.015 280.559 460.347 280.111 460.563C279.664 460.779 279.166 460.869 278.671 460.826C277.001 460.826 275.975 459.952 275.975 458.666C275.975 457.379 276.71 456.536 278.824 456.536H281.168V456.076C281.168 454.82 280.448 454.131 279.069 454.131C278.174 454.119 277.304 454.429 276.618 455.004L276.158 454.253C277.031 453.572 278.116 453.22 279.222 453.258C279.619 453.206 280.022 453.246 280.401 453.373C280.78 453.501 281.125 453.712 281.41 453.993C281.695 454.273 281.912 454.615 282.045 454.992C282.179 455.369 282.224 455.771 282.179 456.168ZM281.183 458.528V457.317H278.824C277.399 457.317 276.94 457.884 276.94 458.65C276.94 459.416 277.614 460.029 278.809 460.029C279.313 460.066 279.816 459.941 280.244 459.67C280.672 459.4 281.001 458.999 281.183 458.528Z" fill="#263238"/>
<path d="M283.864 459.906L284.309 459.125C285.081 459.665 286.001 459.953 286.944 459.952C288.338 459.952 288.92 459.477 288.92 458.742C288.92 456.812 284.125 458.328 284.125 455.418C284.125 454.207 285.167 453.304 287.051 453.304C287.97 453.295 288.875 453.533 289.671 453.993L289.226 454.79C288.582 454.364 287.823 454.145 287.051 454.161C285.718 454.161 285.121 454.682 285.121 455.387C285.121 457.379 289.916 455.877 289.916 458.712C289.916 459.998 288.797 460.826 286.852 460.826C285.782 460.853 284.733 460.531 283.864 459.906Z" fill="#263238"/>
<path d="M290.728 459.906L291.187 459.125C291.951 459.671 292.868 459.96 293.807 459.952C295.217 459.952 295.783 459.477 295.783 458.742C295.783 456.812 291.004 458.328 291.004 455.418C291.004 454.207 292.045 453.304 293.914 453.304C294.834 453.292 295.739 453.53 296.534 453.993L296.105 454.79C295.454 454.365 294.691 454.147 293.914 454.161C292.582 454.161 291.999 454.682 291.999 455.387C291.999 457.379 296.794 455.877 296.794 458.711C296.794 459.998 295.661 460.826 293.73 460.826C292.657 460.851 291.603 460.529 290.728 459.906Z" fill="#263238"/>
<path d="M309.326 453.365L306.538 460.749H305.603L303.336 454.698L301.007 460.749H300.073L297.208 453.365H298.158L300.487 459.646L302.861 453.365H303.719L306.078 459.646L308.422 453.365H309.326Z" fill="#263238"/>
<path d="M309.878 457.057C309.878 456.311 310.099 455.583 310.513 454.963C310.927 454.343 311.516 453.86 312.204 453.575C312.893 453.29 313.651 453.215 314.382 453.361C315.113 453.506 315.784 453.865 316.311 454.392C316.838 454.919 317.197 455.591 317.343 456.322C317.488 457.053 317.414 457.81 317.128 458.499C316.843 459.188 316.36 459.776 315.74 460.19C315.12 460.605 314.392 460.826 313.646 460.826C313.147 460.843 312.649 460.757 312.184 460.574C311.719 460.39 311.297 460.113 310.944 459.76C310.59 459.406 310.313 458.984 310.13 458.519C309.946 458.054 309.861 457.556 309.878 457.057ZM316.389 457.057C316.365 456.517 316.182 455.996 315.864 455.558C315.547 455.121 315.107 454.787 314.601 454.597C314.094 454.407 313.543 454.371 313.016 454.492C312.489 454.613 312.01 454.886 311.637 455.278C311.264 455.67 311.014 456.162 310.919 456.694C310.824 457.227 310.888 457.775 311.102 458.272C311.316 458.768 311.671 459.191 312.124 459.487C312.576 459.783 313.106 459.94 313.646 459.937C314.02 459.944 314.392 459.874 314.737 459.73C315.082 459.586 315.394 459.371 315.651 459.1C315.909 458.83 316.108 458.508 316.235 458.156C316.362 457.804 316.414 457.43 316.389 457.057Z" fill="#263238"/>
<path d="M323.16 453.304V454.269H322.915C322.565 454.252 322.215 454.313 321.89 454.446C321.566 454.58 321.275 454.783 321.038 455.042C320.801 455.301 320.624 455.609 320.52 455.944C320.415 456.279 320.386 456.633 320.433 456.98V460.749H319.437V453.365H320.387V454.805C320.646 454.305 321.048 453.895 321.543 453.627C322.037 453.36 322.601 453.247 323.16 453.304Z" fill="#263238"/>
<path d="M331.632 450.408V460.826H330.682V459.37C330.385 459.854 329.965 460.251 329.464 460.52C328.964 460.79 328.401 460.921 327.833 460.902C326.877 460.841 325.98 460.418 325.324 459.72C324.669 459.021 324.304 458.099 324.304 457.141C324.304 456.183 324.669 455.261 325.324 454.563C325.98 453.864 326.877 453.441 327.833 453.38C328.393 453.368 328.947 453.503 329.439 453.771C329.931 454.04 330.344 454.434 330.636 454.912V450.408H331.632ZM330.652 457.134C330.628 456.593 330.445 456.072 330.127 455.635C329.809 455.197 329.37 454.863 328.864 454.674C328.357 454.484 327.806 454.447 327.279 454.569C326.752 454.69 326.272 454.963 325.9 455.355C325.527 455.746 325.277 456.239 325.182 456.771C325.087 457.303 325.151 457.852 325.365 458.348C325.579 458.845 325.934 459.267 326.387 459.564C326.839 459.86 327.369 460.016 327.909 460.014C328.29 460.022 328.669 459.949 329.02 459.801C329.37 459.652 329.686 459.431 329.945 459.152C330.204 458.872 330.401 458.541 330.523 458.18C330.645 457.819 330.689 457.436 330.652 457.057V457.134Z" fill="#263238"/>
</g>
<path opacity="0.2" d="M456.413 508.624H255.967V542.941H456.413V508.624Z" fill="black"/>
<g opacity="0.5">
<path d="M304.715 492.86H301.436L300.732 494.392H300.088L302.769 488.524H303.382L306.063 494.392H305.42L304.715 492.86ZM304.485 492.354L303.076 489.198L301.666 492.354H304.485Z" fill="black"/>
<path d="M306.921 488.202H307.518V494.422H306.921V488.202Z" fill="black"/>
<path d="M311.41 489.98V490.562H311.257C311.043 490.543 310.827 490.573 310.627 490.65C310.426 490.727 310.246 490.847 310.098 491.004C309.951 491.16 309.841 491.347 309.776 491.552C309.711 491.757 309.694 491.973 309.725 492.186V494.438H309.127V490.025H309.709V490.883C309.863 490.574 310.109 490.321 310.414 490.159C310.719 489.996 311.067 489.934 311.41 489.98Z" fill="black"/>
<path d="M316.281 492.4H312.528C312.54 492.615 312.594 492.825 312.688 493.019C312.781 493.212 312.912 493.385 313.073 493.528C313.234 493.671 313.422 493.78 313.626 493.849C313.829 493.918 314.045 493.947 314.259 493.932C314.514 493.941 314.767 493.895 315.003 493.797C315.238 493.699 315.449 493.552 315.623 493.365L315.944 493.748C315.628 494.081 315.22 494.312 314.772 494.414C314.324 494.515 313.857 494.482 313.428 494.318C312.999 494.154 312.628 493.867 312.361 493.493C312.095 493.12 311.945 492.675 311.931 492.216C311.916 491.925 311.961 491.634 312.063 491.361C312.166 491.088 312.323 490.839 312.526 490.629C312.728 490.42 312.971 490.254 313.241 490.142C313.51 490.03 313.799 489.975 314.091 489.98C314.382 489.973 314.672 490.026 314.941 490.137C315.211 490.249 315.454 490.415 315.656 490.625C315.858 490.836 316.014 491.086 316.113 491.36C316.213 491.634 316.255 491.925 316.235 492.216C316.235 492.216 316.281 492.339 316.281 492.4ZM312.589 491.956H315.653C315.653 491.55 315.492 491.16 315.205 490.873C314.917 490.585 314.528 490.424 314.121 490.424C313.715 490.424 313.325 490.585 313.038 490.873C312.751 491.16 312.589 491.55 312.589 491.956Z" fill="black"/>
<path d="M320.709 491.772V494.499H320.188V493.81C320.026 494.062 319.796 494.264 319.526 494.394C319.256 494.523 318.955 494.576 318.656 494.545C317.66 494.545 317.124 494.024 317.124 493.258C317.124 492.492 317.553 492.002 318.825 492.002H320.188V491.741C320.188 490.991 319.759 490.577 318.932 490.577C318.375 490.556 317.829 490.742 317.4 491.098L317.139 490.654C317.647 490.248 318.283 490.037 318.932 490.056C319.169 490.015 319.412 490.031 319.642 490.102C319.872 490.173 320.082 490.297 320.255 490.464C320.428 490.631 320.559 490.837 320.638 491.064C320.717 491.291 320.741 491.534 320.709 491.772ZM320.127 493.181V492.446H318.733C317.875 492.446 317.599 492.783 317.599 493.243C317.599 493.702 318.013 494.07 318.717 494.07C319.035 494.094 319.351 494.013 319.617 493.838C319.883 493.663 320.084 493.406 320.188 493.105L320.127 493.181Z" fill="black"/>
<path d="M326.316 488.202V494.422H325.749V493.549C325.575 493.842 325.325 494.082 325.026 494.243C324.726 494.405 324.389 494.483 324.049 494.468C323.486 494.422 322.96 494.165 322.578 493.749C322.195 493.334 321.982 492.789 321.982 492.224C321.982 491.659 322.195 491.114 322.578 490.699C322.96 490.283 323.486 490.026 324.049 489.98C324.381 489.971 324.709 490.046 325.004 490.199C325.299 490.351 325.55 490.576 325.734 490.853V488.202H326.316ZM325.734 492.216C325.719 491.896 325.61 491.587 325.421 491.327C325.232 491.068 324.971 490.87 324.671 490.758C324.37 490.645 324.043 490.623 323.731 490.695C323.418 490.767 323.133 490.929 322.911 491.161C322.69 491.393 322.541 491.684 322.484 492C322.426 492.316 322.463 492.642 322.589 492.937C322.715 493.232 322.925 493.483 323.192 493.66C323.46 493.837 323.774 493.932 324.095 493.932C324.323 493.946 324.551 493.911 324.765 493.829C324.978 493.747 325.172 493.621 325.333 493.459C325.494 493.296 325.618 493.102 325.698 492.887C325.778 492.673 325.811 492.444 325.795 492.216H325.734Z" fill="black"/>
<path d="M331.755 490.01L329.549 494.959C329.181 495.816 328.706 496.092 328.017 496.092C327.621 496.103 327.237 495.96 326.944 495.694L327.22 495.25C327.435 495.465 327.727 495.586 328.032 495.587C328.43 495.587 328.691 495.403 328.951 494.836L329.135 494.422L327.159 490.01H327.848L329.518 493.764L331.173 490.01H331.755Z" fill="black"/>
<path d="M338.128 491.772V494.499H337.561V493.81C337.398 494.062 337.169 494.264 336.899 494.394C336.628 494.523 336.327 494.576 336.029 494.545C335.033 494.545 334.497 494.024 334.497 493.258C334.497 492.492 334.926 492.002 336.197 492.002H337.592V491.741C337.592 490.991 337.178 490.577 336.351 490.577C335.793 490.556 335.248 490.742 334.819 491.098L334.543 490.654C335.057 490.248 335.697 490.037 336.351 490.056C336.588 490.015 336.831 490.031 337.061 490.102C337.291 490.173 337.501 490.297 337.674 490.464C337.847 490.631 337.978 490.837 338.057 491.064C338.136 491.291 338.16 491.534 338.128 491.772ZM337.53 493.181V492.446H336.152C335.294 492.446 335.018 492.783 335.018 493.243C335.018 493.702 335.431 494.07 336.136 494.07C336.442 494.082 336.743 493.995 336.995 493.821C337.246 493.646 337.434 493.395 337.53 493.105V493.181Z" fill="black"/>
<path d="M349.296 491.864V494.422H348.714V491.925C348.714 490.991 348.239 490.516 347.442 490.516C347.237 490.5 347.031 490.528 346.838 490.599C346.644 490.671 346.469 490.783 346.323 490.929C346.178 491.074 346.065 491.25 345.994 491.443C345.923 491.636 345.894 491.842 345.91 492.048V494.361H345.328V491.925C345.328 490.991 344.853 490.516 344.041 490.516C343.836 490.5 343.63 490.528 343.437 490.599C343.243 490.671 343.068 490.783 342.922 490.929C342.777 491.074 342.664 491.25 342.593 491.443C342.522 491.636 342.493 491.842 342.509 492.048V494.361H341.912V489.949H342.479V490.761C342.648 490.486 342.888 490.263 343.174 490.115C343.46 489.966 343.781 489.898 344.103 489.918C344.424 489.893 344.745 489.97 345.02 490.138C345.295 490.305 345.51 490.556 345.635 490.853C345.813 490.553 346.07 490.307 346.378 490.142C346.685 489.977 347.032 489.9 347.381 489.918C347.646 489.871 347.918 489.889 348.174 489.97C348.43 490.052 348.663 490.195 348.851 490.386C349.04 490.578 349.179 490.813 349.257 491.07C349.334 491.328 349.348 491.6 349.296 491.864Z" fill="black"/>
<path d="M354.719 492.4H351.027C351.059 492.834 351.26 493.237 351.586 493.524C351.913 493.811 352.34 493.957 352.774 493.932C353.026 493.942 353.278 493.896 353.511 493.798C353.744 493.7 353.952 493.552 354.122 493.365L354.459 493.748C354.244 493.983 353.98 494.169 353.687 494.293C353.394 494.418 353.077 494.477 352.758 494.468C352.455 494.488 352.15 494.443 351.865 494.338C351.58 494.232 351.32 494.068 351.102 493.856C350.884 493.644 350.712 493.388 350.599 493.106C350.486 492.823 350.434 492.52 350.445 492.216C350.445 491.647 350.671 491.102 351.073 490.7C351.476 490.297 352.021 490.071 352.59 490.071C353.159 490.071 353.704 490.297 354.107 490.7C354.509 491.102 354.735 491.647 354.735 492.216C354.735 492.216 354.719 492.339 354.719 492.4ZM351.027 491.956H354.168C354.168 491.539 354.002 491.14 353.708 490.845C353.413 490.551 353.014 490.386 352.598 490.386C352.181 490.386 351.782 490.551 351.487 490.845C351.193 491.14 351.027 491.539 351.027 491.956Z" fill="black"/>
<path d="M363.237 491.864V494.422H362.64V491.925C362.64 490.991 362.18 490.516 361.384 490.516C361.178 490.497 360.97 490.524 360.776 490.594C360.581 490.664 360.405 490.777 360.259 490.923C360.112 491.069 360 491.245 359.93 491.44C359.859 491.634 359.833 491.842 359.852 492.048V494.361H359.254V491.925C359.254 490.991 358.794 490.516 357.983 490.516C357.777 490.497 357.569 490.524 357.375 490.594C357.18 490.664 357.004 490.777 356.857 490.923C356.711 491.069 356.599 491.245 356.529 491.44C356.458 491.634 356.432 491.842 356.451 492.048V494.361H355.853V489.949H356.42V490.761C356.587 490.485 356.828 490.261 357.114 490.112C357.4 489.964 357.722 489.897 358.044 489.918C358.365 489.893 358.686 489.97 358.961 490.138C359.236 490.305 359.451 490.556 359.576 490.853C359.754 490.553 360.011 490.307 360.319 490.142C360.627 489.977 360.974 489.9 361.322 489.918C361.587 489.871 361.859 489.889 362.115 489.97C362.372 490.052 362.604 490.195 362.793 490.386C362.981 490.578 363.12 490.813 363.198 491.07C363.275 491.328 363.289 491.6 363.237 491.864Z" fill="black"/>
<path d="M369.335 492.216C369.349 492.511 369.303 492.805 369.199 493.081C369.095 493.357 368.936 493.608 368.73 493.82C368.524 494.031 368.277 494.198 368.004 494.309C367.732 494.421 367.439 494.475 367.144 494.468C366.804 494.483 366.466 494.405 366.167 494.243C365.867 494.082 365.617 493.842 365.443 493.549V494.422H364.861V488.202H365.459V490.853C365.642 490.575 365.893 490.35 366.188 490.197C366.483 490.044 366.812 489.969 367.144 489.98C367.438 489.971 367.731 490.023 368.003 490.133C368.276 490.243 368.523 490.408 368.729 490.618C368.935 490.828 369.095 491.079 369.199 491.354C369.304 491.629 369.35 491.923 369.335 492.216ZM368.737 492.216C368.722 491.896 368.613 491.587 368.424 491.327C368.235 491.068 367.975 490.87 367.674 490.758C367.373 490.645 367.047 490.623 366.734 490.695C366.421 490.767 366.136 490.929 365.914 491.161C365.693 491.393 365.544 491.684 365.487 492C365.43 492.316 365.466 492.642 365.592 492.937C365.718 493.232 365.928 493.483 366.196 493.66C366.463 493.837 366.777 493.932 367.098 493.932C367.321 493.937 367.543 493.895 367.749 493.81C367.955 493.724 368.141 493.596 368.295 493.435C368.449 493.274 368.568 493.082 368.644 492.872C368.721 492.662 368.752 492.439 368.737 492.216Z" fill="black"/>
<path d="M374.406 492.4H370.744C370.756 492.615 370.81 492.825 370.904 493.019C370.997 493.212 371.128 493.385 371.289 493.528C371.45 493.67 371.638 493.78 371.842 493.849C372.045 493.918 372.261 493.947 372.475 493.932C372.73 493.932 372.981 493.876 373.212 493.767C373.442 493.658 373.646 493.5 373.808 493.304L374.145 493.687C373.828 494.019 373.421 494.251 372.973 494.352C372.525 494.454 372.057 494.42 371.628 494.257C371.199 494.093 370.828 493.806 370.562 493.432C370.296 493.058 370.146 492.614 370.131 492.155C370.117 491.864 370.162 491.573 370.264 491.3C370.366 491.027 370.524 490.778 370.726 490.568C370.929 490.358 371.172 490.193 371.441 490.081C371.711 489.969 372 489.914 372.291 489.918C372.582 489.911 372.871 489.965 373.14 490.076C373.409 490.187 373.651 490.354 373.852 490.564C374.053 490.775 374.207 491.026 374.305 491.299C374.403 491.573 374.442 491.865 374.421 492.155L374.406 492.4ZM370.713 491.956H373.777C373.777 491.55 373.616 491.16 373.329 490.873C373.041 490.585 372.652 490.424 372.245 490.424C371.839 490.424 371.449 490.585 371.162 490.873C370.875 491.16 370.713 491.55 370.713 491.956Z" fill="black"/>
<path d="M377.853 489.98V490.562H377.715C377.501 490.543 377.286 490.573 377.085 490.65C376.884 490.727 376.704 490.847 376.556 491.004C376.409 491.16 376.299 491.347 376.234 491.552C376.17 491.757 376.152 491.973 376.183 492.186V494.438H375.585V490.025H376.152V490.883C376.307 490.576 376.554 490.324 376.859 490.162C377.163 490 377.51 489.936 377.853 489.98Z" fill="black"/>
<path d="M381.713 490.056C381.713 489.443 381.223 489.03 380.365 489.03C380.063 489.013 379.762 489.064 379.483 489.181C379.204 489.298 378.956 489.477 378.756 489.704L378.312 489.367C378.573 489.072 378.898 488.84 379.261 488.689C379.625 488.538 380.018 488.471 380.411 488.493C381.591 488.493 382.341 489.06 382.341 490.025C382.341 491.45 380.809 491.557 380.809 492.722H380.181C380.181 491.282 381.713 491.144 381.713 490.056ZM380.059 494.024C380.078 493.922 380.132 493.83 380.212 493.764C380.291 493.698 380.392 493.662 380.495 493.662C380.599 493.662 380.699 493.698 380.779 493.764C380.859 493.83 380.913 493.922 380.932 494.024C380.944 494.088 380.942 494.154 380.925 494.217C380.909 494.281 380.879 494.339 380.837 494.39C380.795 494.44 380.743 494.48 380.684 494.508C380.625 494.536 380.561 494.55 380.495 494.55C380.43 494.55 380.365 494.536 380.306 494.508C380.247 494.48 380.195 494.44 380.153 494.39C380.112 494.339 380.081 494.281 380.065 494.217C380.049 494.154 380.047 494.088 380.059 494.024Z" fill="black"/>
<path d="M385.865 488.555H387.228V493.304H390.17V494.407H385.865V488.555Z" fill="black"/>
<path d="M390.476 492.17C390.446 491.674 390.565 491.18 390.818 490.752C391.071 490.324 391.447 489.983 391.897 489.771C392.347 489.56 392.85 489.488 393.341 489.566C393.833 489.644 394.289 489.867 394.652 490.207C395.014 490.547 395.266 490.989 395.375 491.474C395.484 491.959 395.445 492.466 395.262 492.928C395.08 493.391 394.762 493.788 394.352 494.068C393.941 494.348 393.455 494.498 392.958 494.499C392.64 494.52 392.32 494.475 392.02 494.368C391.719 494.26 391.444 494.092 391.212 493.874C390.979 493.655 390.793 493.391 390.667 493.098C390.541 492.805 390.476 492.489 390.476 492.17ZM394.107 492.17C394.089 491.948 394.007 491.735 393.87 491.559C393.734 491.382 393.549 491.25 393.338 491.176C393.127 491.103 392.899 491.093 392.683 491.148C392.466 491.202 392.27 491.318 392.119 491.482C391.967 491.645 391.866 491.85 391.829 492.07C391.792 492.29 391.819 492.516 391.908 492.721C391.997 492.925 392.144 493.1 392.33 493.222C392.517 493.345 392.735 493.411 392.958 493.411C393.118 493.414 393.276 493.383 393.423 493.321C393.57 493.258 393.702 493.165 393.81 493.048C393.919 492.931 394.001 492.792 394.053 492.641C394.104 492.49 394.122 492.329 394.107 492.17Z" fill="black"/>
<path d="M400.971 489.903V493.672C401.012 494.01 400.975 494.354 400.862 494.676C400.748 494.998 400.562 495.289 400.317 495.527C400.072 495.764 399.775 495.942 399.45 496.045C399.125 496.149 398.78 496.175 398.443 496.123C397.654 496.153 396.877 495.933 396.221 495.495L396.742 494.56C397.19 494.88 397.724 495.057 398.274 495.066C399.193 495.066 399.607 494.652 399.607 493.84V493.641C399.424 493.832 399.202 493.981 398.956 494.079C398.71 494.176 398.446 494.22 398.182 494.208C397.88 494.233 397.576 494.196 397.289 494.097C397.003 493.999 396.739 493.842 396.516 493.637C396.293 493.432 396.115 493.183 395.993 492.905C395.871 492.628 395.808 492.328 395.808 492.025C395.808 491.722 395.871 491.422 395.993 491.144C396.115 490.867 396.293 490.617 396.516 490.412C396.739 490.207 397.003 490.05 397.289 489.952C397.576 489.854 397.88 489.816 398.182 489.842C398.47 489.819 398.76 489.865 399.027 489.977C399.293 490.089 399.529 490.263 399.714 490.485V489.903H400.971ZM399.684 492.032C399.689 491.879 399.661 491.726 399.602 491.584C399.544 491.442 399.456 491.314 399.345 491.208C399.233 491.103 399.101 491.022 398.956 490.971C398.811 490.92 398.657 490.901 398.504 490.914C398.347 490.896 398.188 490.911 398.038 490.958C397.887 491.005 397.748 491.084 397.63 491.189C397.512 491.294 397.418 491.423 397.353 491.567C397.288 491.711 397.255 491.867 397.255 492.025C397.255 492.183 397.288 492.339 397.353 492.483C397.418 492.627 397.512 492.756 397.63 492.86C397.748 492.965 397.887 493.044 398.038 493.092C398.188 493.139 398.347 493.154 398.504 493.135C398.656 493.148 398.808 493.129 398.952 493.079C399.096 493.03 399.228 492.95 399.339 492.846C399.45 492.742 399.538 492.616 399.598 492.476C399.657 492.336 399.686 492.185 399.684 492.032Z" fill="black"/>
<path d="M404.448 488.555C404.45 488.452 404.473 488.351 404.515 488.257C404.557 488.164 404.619 488.08 404.695 488.011C404.771 487.942 404.86 487.89 404.958 487.857C405.055 487.824 405.158 487.811 405.26 487.819C405.36 487.809 405.462 487.819 405.558 487.849C405.654 487.88 405.743 487.929 405.819 487.995C405.895 488.061 405.957 488.143 406.001 488.233C406.044 488.324 406.068 488.423 406.072 488.524C406.072 488.739 405.986 488.946 405.834 489.098C405.682 489.251 405.475 489.336 405.26 489.336C405.045 489.336 404.838 489.251 404.686 489.098C404.534 488.946 404.448 488.739 404.448 488.524V488.555ZM404.601 489.903H405.904V494.499H404.601V489.903Z" fill="black"/>
<path d="M411.71 491.772V494.361H410.408V491.987C410.408 491.251 410.071 490.914 409.488 490.914C408.906 490.914 408.401 491.297 408.401 492.124V494.361H407.099V489.765H408.355V490.301C408.552 490.098 408.791 489.939 409.056 489.836C409.32 489.733 409.603 489.688 409.887 489.704C410.151 489.69 410.416 489.737 410.66 489.84C410.904 489.943 411.122 490.1 411.297 490.298C411.472 490.497 411.6 490.733 411.672 490.988C411.743 491.243 411.756 491.511 411.71 491.772Z" fill="black"/>
</g>
<path d="M456.413 506.525H255.967V540.842H456.413V506.525Z" fill="#394689"/>
<path d="M330.299 529.015L327.848 525.476H327.113H324.202V529.046H322.517V517.295H327.113C330.177 517.295 332 518.827 332 521.401C332.039 522.216 331.807 523.021 331.342 523.691C330.877 524.362 330.203 524.86 329.426 525.108L332.214 529.046L330.299 529.015ZM330.299 521.355C330.299 519.67 329.181 518.72 327.021 518.72H324.171V524.005H327.021C329.135 524.021 330.253 523.04 330.253 521.37L330.299 521.355Z" fill="white"/>
<path d="M342.433 525.108H335.217C335.33 525.866 335.724 526.554 336.319 527.036C336.915 527.518 337.669 527.759 338.434 527.713C338.915 527.73 339.394 527.643 339.838 527.458C340.283 527.273 340.682 526.994 341.008 526.64L341.896 527.682C341.241 528.348 340.407 528.81 339.495 529.013C338.584 529.217 337.632 529.153 336.756 528.83C335.88 528.506 335.115 527.937 334.554 527.19C333.993 526.443 333.659 525.55 333.593 524.618C333.561 524.017 333.654 523.415 333.866 522.851C334.078 522.287 334.404 521.773 334.824 521.341C335.244 520.91 335.749 520.57 336.307 520.343C336.865 520.116 337.464 520.006 338.066 520.022C338.665 520.006 339.261 520.115 339.816 520.343C340.37 520.57 340.87 520.912 341.284 521.345C341.699 521.778 342.018 522.293 342.221 522.857C342.424 523.42 342.506 524.02 342.463 524.618C342.463 524.756 342.448 524.955 342.433 525.108ZM335.217 523.944H340.916C340.843 523.239 340.511 522.587 339.985 522.112C339.459 521.638 338.775 521.375 338.066 521.375C337.358 521.375 336.674 521.638 336.148 522.112C335.622 522.587 335.29 523.239 335.217 523.944Z" fill="white"/>
<path d="M353.218 520.129V527.789C353.218 530.93 351.609 532.385 348.622 532.385C347.097 532.451 345.598 531.985 344.378 531.068L345.144 529.827C346.125 530.588 347.335 530.993 348.576 530.976C350.675 530.976 351.64 530.011 351.64 527.989V527.284C351.244 527.739 350.75 528.099 350.196 528.337C349.642 528.576 349.041 528.687 348.438 528.663C347.296 528.663 346.201 528.209 345.394 527.402C344.587 526.594 344.133 525.499 344.133 524.358C344.133 523.216 344.587 522.121 345.394 521.314C346.201 520.506 347.296 520.053 348.438 520.053C349.069 520.034 349.695 520.162 350.267 520.428C350.839 520.694 351.34 521.09 351.732 521.585V520.206L353.218 520.129ZM351.686 524.342C351.72 523.73 351.569 523.122 351.253 522.597C350.938 522.071 350.472 521.652 349.916 521.394C349.36 521.136 348.739 521.051 348.134 521.15C347.529 521.248 346.968 521.526 346.522 521.947C346.077 522.368 345.768 522.913 345.635 523.511C345.503 524.11 345.553 524.734 345.779 525.304C346.005 525.874 346.397 526.363 346.903 526.707C347.41 527.052 348.009 527.237 348.622 527.238C349.014 527.261 349.407 527.203 349.775 527.067C350.144 526.932 350.48 526.721 350.764 526.45C351.047 526.178 351.271 525.85 351.422 525.488C351.573 525.125 351.647 524.735 351.64 524.342H351.686Z" fill="white"/>
<path d="M356.006 517.372C356.008 517.231 356.038 517.092 356.094 516.962C356.149 516.833 356.23 516.716 356.331 516.618C356.432 516.52 356.551 516.442 356.682 516.39C356.813 516.338 356.953 516.313 357.094 516.315C357.242 516.297 357.393 516.31 357.536 516.355C357.678 516.399 357.81 516.474 357.922 516.573C358.034 516.672 358.124 516.794 358.185 516.93C358.246 517.067 358.278 517.214 358.278 517.364C358.278 517.514 358.246 517.661 358.185 517.798C358.124 517.934 358.034 518.056 357.922 518.155C357.81 518.254 357.678 518.329 357.536 518.373C357.393 518.418 357.242 518.431 357.094 518.413C356.954 518.418 356.814 518.394 356.684 518.343C356.553 518.293 356.433 518.217 356.332 518.12C356.231 518.023 356.15 517.907 356.094 517.779C356.038 517.65 356.008 517.512 356.006 517.372ZM356.297 520.129H357.906V529.015H356.297V520.129Z" fill="white"/>
<path d="M359.852 528.08L360.526 526.809C361.438 527.401 362.502 527.72 363.59 527.728C365.122 527.728 365.704 527.268 365.704 526.518C365.704 524.526 360.081 526.257 360.081 522.703C360.081 521.171 361.506 520.037 363.789 520.037C364.919 520.019 366.034 520.3 367.021 520.849L366.332 522.121C365.567 521.64 364.677 521.394 363.773 521.416C362.364 521.416 361.675 521.937 361.675 522.642C361.675 524.741 367.312 523.025 367.312 526.487C367.312 528.019 365.78 529.122 363.467 529.122C362.185 529.141 360.927 528.778 359.852 528.08Z" fill="white"/>
<path d="M374.39 528.54C373.833 528.966 373.146 529.188 372.445 529.168C372.067 529.211 371.684 529.169 371.324 529.045C370.965 528.921 370.637 528.717 370.367 528.45C370.096 528.182 369.889 527.857 369.761 527.499C369.633 527.141 369.587 526.758 369.626 526.38V521.493H368.094V520.175H369.626V518.23H371.158V520.175H373.808V521.493H371.25V526.319C371.214 526.516 371.223 526.719 371.279 526.911C371.334 527.104 371.433 527.281 371.567 527.43C371.702 527.578 371.87 527.693 372.056 527.766C372.243 527.839 372.444 527.868 372.644 527.851C373.097 527.855 373.538 527.71 373.9 527.437L374.39 528.54Z" fill="white"/>
<path d="M384.042 525.108H376.872C376.986 525.869 377.381 526.559 377.98 527.041C378.579 527.524 379.337 527.763 380.105 527.713C380.583 527.731 381.06 527.644 381.502 527.459C381.944 527.274 382.34 526.994 382.663 526.64L383.552 527.682C382.898 528.349 382.065 528.813 381.154 529.018C380.242 529.222 379.291 529.159 378.415 528.835C377.539 528.511 376.775 527.94 376.216 527.192C375.657 526.444 375.326 525.55 375.263 524.618C375.232 524.017 375.324 523.415 375.536 522.851C375.748 522.287 376.075 521.773 376.495 521.341C376.915 520.91 377.42 520.57 377.978 520.343C378.536 520.116 379.135 520.006 379.737 520.022C380.335 520.008 380.93 520.119 381.483 520.347C382.036 520.576 382.536 520.917 382.949 521.35C383.363 521.782 383.682 522.296 383.886 522.859C384.09 523.422 384.174 524.021 384.134 524.618C384.118 524.784 384.087 524.948 384.042 525.108ZM376.872 523.944H382.586C382.498 523.249 382.159 522.609 381.633 522.146C381.107 521.683 380.43 521.427 379.729 521.427C379.028 521.427 378.351 521.683 377.825 522.146C377.299 522.609 376.96 523.249 376.872 523.944Z" fill="white"/>
<path d="M391.104 520.037V521.569H390.737C390.338 521.541 389.939 521.604 389.568 521.752C389.197 521.9 388.864 522.129 388.595 522.424C388.325 522.719 388.125 523.07 388.011 523.453C387.896 523.836 387.87 524.239 387.933 524.633V529.061H386.324V520.175H387.856V521.707C388.18 521.146 388.659 520.691 389.235 520.394C389.811 520.098 390.46 519.974 391.104 520.037Z" fill="white"/>
<g opacity="0.6">
<path d="M321.092 272.099L321.781 270.658C322.97 271.655 324.474 272.198 326.025 272.19C328.246 272.19 329.196 271.333 329.196 270.214C329.196 267.15 321.414 269.05 321.414 264.285C321.414 262.294 322.946 260.609 326.331 260.609C327.79 260.585 329.225 260.978 330.468 261.742L329.855 263.274C328.803 262.601 327.581 262.239 326.331 262.232C324.141 262.232 323.267 263.152 323.267 264.27C323.267 267.334 331.065 265.434 331.065 270.168C331.065 272.129 329.533 273.814 326.086 273.814C324.271 273.852 322.501 273.244 321.092 272.099Z" fill="#263238"/>
<path d="M333.118 260.808C333.12 260.653 333.153 260.501 333.214 260.36C333.275 260.218 333.364 260.09 333.475 259.983C333.587 259.876 333.718 259.793 333.862 259.737C334.005 259.681 334.159 259.655 334.313 259.659C334.465 259.653 334.617 259.677 334.76 259.73C334.903 259.783 335.033 259.864 335.145 259.968C335.256 260.072 335.345 260.197 335.408 260.336C335.47 260.475 335.504 260.625 335.508 260.777C335.508 261.094 335.382 261.398 335.158 261.622C334.934 261.846 334.63 261.972 334.313 261.972C333.996 261.972 333.692 261.846 333.468 261.622C333.244 261.398 333.118 261.094 333.118 260.777V260.808ZM333.425 263.872H335.202V273.615H333.425V263.872Z" fill="#263238"/>
<path d="M347.871 263.826V272.236C347.871 275.683 346.125 277.246 342.831 277.246C341.178 277.298 339.557 276.785 338.235 275.791L339.078 274.427C340.145 275.271 341.471 275.72 342.831 275.699C345.129 275.699 346.171 274.626 346.171 272.42V271.654C345.737 272.155 345.197 272.552 344.59 272.817C343.983 273.083 343.324 273.209 342.662 273.186C342.021 273.223 341.379 273.128 340.776 272.908C340.173 272.688 339.621 272.347 339.154 271.906C338.687 271.465 338.315 270.933 338.061 270.343C337.806 269.753 337.675 269.118 337.675 268.475C337.675 267.833 337.806 267.198 338.061 266.608C338.315 266.018 338.687 265.486 339.154 265.045C339.621 264.604 340.173 264.263 340.776 264.043C341.379 263.823 342.021 263.728 342.662 263.764C343.34 263.729 344.016 263.849 344.64 264.114C345.264 264.38 345.819 264.784 346.263 265.296V263.764L347.871 263.826ZM346.155 268.422C346.189 267.752 346.021 267.088 345.674 266.514C345.326 265.941 344.815 265.484 344.205 265.205C343.596 264.925 342.917 264.834 342.255 264.943C341.594 265.053 340.98 265.359 340.494 265.82C340.008 266.282 339.671 266.879 339.527 267.534C339.384 268.189 339.44 268.872 339.688 269.495C339.936 270.118 340.365 270.652 340.92 271.029C341.475 271.406 342.13 271.607 342.8 271.608C343.239 271.647 343.68 271.593 344.097 271.451C344.513 271.309 344.895 271.081 345.218 270.782C345.541 270.484 345.798 270.121 345.973 269.717C346.148 269.313 346.236 268.877 346.232 268.437L346.155 268.422Z" fill="#263238"/>
<path d="M360.495 267.962V273.569H358.718V268.1C358.718 266.185 357.768 265.25 356.098 265.25C355.674 265.223 355.249 265.289 354.853 265.444C354.457 265.599 354.1 265.839 353.808 266.148C353.515 266.456 353.294 266.826 353.161 267.229C353.027 267.633 352.984 268.061 353.034 268.483V273.508H351.272V263.764H352.973V265.296C353.391 264.777 353.928 264.367 354.539 264.1C355.15 263.833 355.816 263.718 356.481 263.764C357.034 263.727 357.588 263.812 358.104 264.013C358.621 264.213 359.087 264.524 359.47 264.925C359.852 265.325 360.143 265.805 360.32 266.329C360.497 266.854 360.557 267.412 360.495 267.962Z" fill="#263238"/>
<path d="M377.791 263.826V273.569H376.121V272.037C375.732 272.539 375.229 272.939 374.653 273.206C374.077 273.472 373.446 273.597 372.812 273.569C372.243 273.628 371.667 273.558 371.128 273.365C370.589 273.172 370.1 272.86 369.697 272.453C369.294 272.046 368.988 271.553 368.801 271.012C368.613 270.471 368.55 269.895 368.615 269.326V263.718H370.376V269.126C370.376 271.026 371.342 271.991 373.011 271.991C373.436 272.022 373.863 271.958 374.26 271.804C374.657 271.649 375.015 271.409 375.308 271.1C375.601 270.791 375.822 270.42 375.955 270.016C376.087 269.611 376.129 269.181 376.075 268.759V263.718L377.791 263.826Z" fill="#263238"/>
<path d="M391.242 268.697C391.277 269.355 391.174 270.013 390.94 270.629C390.706 271.244 390.346 271.804 389.883 272.273C389.42 272.742 388.864 273.108 388.252 273.35C387.639 273.592 386.983 273.703 386.324 273.676C385.678 273.702 385.034 273.576 384.444 273.311C383.854 273.045 383.333 272.646 382.923 272.144V277.169H381.162V263.872H382.847V265.404C383.251 264.87 383.779 264.443 384.384 264.157C384.99 263.872 385.656 263.737 386.324 263.764C386.979 263.736 387.633 263.844 388.243 264.082C388.854 264.321 389.408 264.683 389.87 265.147C390.333 265.611 390.694 266.167 390.93 266.778C391.166 267.389 391.273 268.043 391.242 268.697ZM389.465 268.697C389.435 268.057 389.218 267.44 388.841 266.921C388.463 266.403 387.942 266.007 387.342 265.781C386.742 265.556 386.089 265.512 385.464 265.654C384.839 265.796 384.269 266.118 383.825 266.581C383.381 267.043 383.082 267.626 382.966 268.256C382.85 268.886 382.921 269.537 383.171 270.128C383.42 270.718 383.838 271.222 384.371 271.578C384.904 271.934 385.53 272.125 386.171 272.129C386.618 272.138 387.062 272.055 387.475 271.884C387.888 271.713 388.261 271.458 388.571 271.136C388.88 270.813 389.12 270.43 389.274 270.01C389.427 269.591 389.493 269.144 389.465 268.697Z" fill="#263238"/>
</g>
<path d="M456.413 345.527H255.967V379.844H456.413V345.527Z" fill="white"/>
<g opacity="0.4">
<path d="M266.936 357.094H267.978V366.025H273.477V366.929H266.936V357.094Z" fill="#263238"/>
<path d="M280.601 362.349V366.945H279.651V365.796C279.373 366.206 278.991 366.535 278.544 366.75C278.098 366.965 277.603 367.059 277.108 367.021C275.438 367.021 274.412 366.148 274.412 364.861C274.412 363.574 275.132 362.778 277.262 362.778H279.605V362.333C279.605 361.062 278.885 360.372 277.507 360.372C276.611 360.361 275.742 360.67 275.055 361.246L274.596 360.495C275.471 359.817 276.554 359.465 277.66 359.499C278.049 359.452 278.445 359.492 278.817 359.618C279.189 359.743 279.528 359.949 279.81 360.222C280.092 360.496 280.309 360.828 280.446 361.196C280.583 361.564 280.636 361.958 280.601 362.349ZM279.605 364.708V363.498H277.292C275.852 363.498 275.392 364.065 275.392 364.831C275.392 365.597 276.082 366.209 277.262 366.209C277.761 366.24 278.257 366.111 278.678 365.841C279.1 365.571 279.424 365.174 279.605 364.708Z" fill="#263238"/>
<path d="M282.286 366.148L282.731 365.367C283.503 365.906 284.423 366.195 285.366 366.194C286.775 366.194 287.342 365.719 287.342 364.984C287.342 363.053 282.562 364.57 282.562 361.659C282.562 360.449 283.589 359.545 285.473 359.545C286.393 359.533 287.298 359.771 288.093 360.234L287.648 361.031C287.004 360.606 286.245 360.386 285.473 360.403C284.14 360.403 283.558 360.924 283.558 361.629C283.558 363.62 288.338 362.119 288.338 364.953C288.338 366.24 287.219 367.067 285.274 367.067C284.205 367.091 283.157 366.768 282.286 366.148Z" fill="#263238"/>
<path d="M294.144 366.485C293.709 366.83 293.168 367.014 292.612 367.006C292.321 367.037 292.026 367.003 291.75 366.906C291.473 366.808 291.222 366.65 291.015 366.443C290.808 366.236 290.65 365.985 290.552 365.708C290.455 365.432 290.421 365.137 290.452 364.846V360.388H289.119V359.545H290.452V357.921H291.448V359.545H293.684V360.388H291.448V364.8C291.422 364.976 291.436 365.156 291.489 365.327C291.543 365.497 291.634 365.653 291.756 365.782C291.879 365.912 292.029 366.013 292.196 366.076C292.363 366.139 292.542 366.164 292.719 366.148C293.122 366.16 293.514 366.024 293.822 365.765L294.144 366.485Z" fill="#263238"/>
<path d="M307.932 357.094V366.929H307.074L300.762 358.948V366.929H299.721V357.094H300.578L306.906 365.076V357.094H307.932Z" fill="#263238"/>
<path d="M316.573 362.349V366.945H315.592V365.796C315.316 366.208 314.934 366.539 314.487 366.754C314.04 366.97 313.544 367.062 313.049 367.021C311.379 367.021 310.353 366.148 310.353 364.861C310.353 363.574 311.088 362.778 313.217 362.778H315.592V362.333C315.592 361.062 314.872 360.372 313.493 360.372C312.598 360.36 311.728 360.67 311.042 361.246L310.582 360.495C311.455 359.814 312.54 359.461 313.646 359.499C314.035 359.454 314.428 359.497 314.799 359.623C315.169 359.749 315.506 359.956 315.786 360.229C316.066 360.502 316.282 360.834 316.418 361.2C316.554 361.567 316.607 361.959 316.573 362.349ZM315.577 364.708V363.498H313.248C311.823 363.498 311.364 364.064 311.364 364.83C311.364 365.596 312.053 366.209 313.233 366.209C313.735 366.243 314.234 366.116 314.659 365.846C315.083 365.576 315.41 365.177 315.592 364.708H315.577Z" fill="#263238"/>
<path d="M331.479 362.64V366.929H330.483V362.747C330.483 361.215 329.686 360.388 328.354 360.388C328.008 360.372 327.663 360.431 327.343 360.562C327.023 360.694 326.735 360.893 326.501 361.147C326.266 361.401 326.089 361.703 325.983 362.032C325.877 362.362 325.844 362.71 325.887 363.053V366.929H324.891V362.747C324.891 361.215 324.095 360.388 322.746 360.388C322.401 360.372 322.056 360.431 321.736 360.562C321.416 360.694 321.128 360.893 320.893 361.147C320.658 361.401 320.482 361.703 320.376 362.032C320.27 362.362 320.237 362.71 320.28 363.053V366.929H319.284V359.545H320.188V360.893C320.477 360.442 320.88 360.074 321.356 359.826C321.831 359.579 322.364 359.461 322.9 359.484C323.443 359.439 323.987 359.562 324.458 359.836C324.929 360.11 325.305 360.522 325.535 361.016C325.837 360.522 326.267 360.119 326.78 359.85C327.292 359.58 327.867 359.454 328.446 359.484C328.865 359.443 329.288 359.497 329.683 359.643C330.078 359.789 330.435 360.023 330.727 360.327C331.019 360.63 331.238 360.996 331.368 361.397C331.499 361.797 331.536 362.222 331.479 362.64Z" fill="#263238"/>
<path d="M340.656 363.544H334.528C334.549 363.904 334.642 364.257 334.8 364.581C334.958 364.906 335.178 365.196 335.449 365.435C335.719 365.674 336.034 365.857 336.375 365.975C336.717 366.092 337.078 366.14 337.438 366.117C337.864 366.131 338.287 366.052 338.679 365.885C339.07 365.718 339.421 365.468 339.706 365.152L340.257 365.796C339.726 366.35 339.044 366.736 338.295 366.905C337.546 367.073 336.764 367.018 336.047 366.745C335.329 366.472 334.708 365.994 334.261 365.37C333.814 364.746 333.56 364.004 333.532 363.237C333.507 362.749 333.582 362.261 333.753 361.804C333.924 361.346 334.187 360.928 334.526 360.577C334.865 360.225 335.272 359.946 335.723 359.758C336.174 359.57 336.659 359.477 337.147 359.484C337.635 359.474 338.12 359.566 338.57 359.754C339.021 359.941 339.427 360.22 339.764 360.573C340.101 360.926 340.361 361.345 340.528 361.803C340.695 362.262 340.764 362.75 340.732 363.237C340.671 363.329 340.656 363.436 340.656 363.544ZM334.528 362.808H339.767C339.767 362.113 339.491 361.447 339 360.956C338.509 360.465 337.842 360.189 337.147 360.189C336.453 360.189 335.786 360.465 335.295 360.956C334.804 361.447 334.528 362.113 334.528 362.808Z" fill="#263238"/>
</g>
<path d="M456.413 298.648H255.967V332.965H456.413V298.648Z" fill="white"/>
<g opacity="0.4">
<path d="M267.978 311.119V314.979H273.064V315.883H267.978V320.05H266.936V310.215H273.677V311.119H267.978Z" fill="#263238"/>
<path d="M275.255 310.322C275.252 310.175 275.292 310.031 275.372 309.908C275.452 309.784 275.566 309.688 275.701 309.63C275.836 309.573 275.985 309.557 276.13 309.585C276.274 309.613 276.406 309.683 276.51 309.787C276.613 309.891 276.684 310.023 276.712 310.167C276.74 310.311 276.724 310.46 276.666 310.595C276.609 310.73 276.512 310.845 276.389 310.924C276.266 311.004 276.121 311.045 275.975 311.042C275.784 311.042 275.6 310.966 275.465 310.831C275.33 310.696 275.255 310.513 275.255 310.322ZM275.469 312.666H276.465V320.05H275.469V312.666Z" fill="#263238"/>
<path d="M282.976 312.605V313.57H282.731C282.379 313.553 282.027 313.614 281.702 313.748C281.376 313.883 281.084 314.088 280.847 314.348C280.61 314.609 280.433 314.919 280.33 315.256C280.226 315.592 280.199 315.948 280.249 316.297V320.065H279.253V312.681H280.203V314.06C280.468 313.569 280.873 313.168 281.367 312.909C281.861 312.65 282.421 312.544 282.976 312.605Z" fill="#263238"/>
<path d="M283.803 319.208L284.247 318.411C285.013 318.966 285.937 319.261 286.882 319.253C288.292 319.253 288.859 318.763 288.859 318.043C288.859 316.113 284.079 317.63 284.079 314.703C284.079 313.508 285.105 312.605 286.99 312.605C287.91 312.585 288.818 312.823 289.609 313.294L289.165 314.091C288.521 313.665 287.762 313.446 286.99 313.463C285.657 313.463 285.075 313.983 285.075 314.688C285.075 316.68 289.854 315.178 289.854 318.013C289.854 319.284 288.736 320.111 286.79 320.111C285.723 320.139 284.676 319.822 283.803 319.208Z" fill="#263238"/>
<path d="M295.676 319.606C295.236 319.94 294.697 320.118 294.144 320.111C293.854 320.145 293.559 320.113 293.283 320.018C293.006 319.922 292.755 319.766 292.547 319.56C292.34 319.353 292.181 319.103 292.084 318.827C291.986 318.552 291.952 318.257 291.984 317.967V313.508H290.651V312.666H291.984V310.996H292.98V312.62H295.216V313.463H292.98V317.859C292.954 318.036 292.968 318.217 293.022 318.388C293.075 318.559 293.166 318.715 293.288 318.846C293.41 318.977 293.56 319.079 293.727 319.144C293.894 319.209 294.073 319.236 294.251 319.223C294.652 319.228 295.043 319.093 295.354 318.84L295.676 319.606Z" fill="#263238"/>
<path d="M309.464 310.215V320.05H308.606L302.294 312.068V320.05H301.253V310.215H302.11L308.438 318.196V310.215H309.464Z" fill="#263238"/>
<path d="M318.089 315.469V320.065H317.124V318.916C316.849 319.326 316.47 319.654 316.025 319.867C315.581 320.08 315.087 320.169 314.596 320.127C312.911 320.127 311.885 319.269 311.885 317.982C311.885 316.695 312.62 315.898 314.749 315.898H317.124V315.439C317.124 314.183 316.404 313.493 315.025 313.493C314.13 313.481 313.26 313.791 312.574 314.366L312.114 313.616C312.988 312.936 314.072 312.583 315.178 312.62C315.566 312.575 315.959 312.617 316.329 312.743C316.698 312.87 317.035 313.077 317.314 313.35C317.593 313.623 317.807 313.955 317.941 314.322C318.076 314.689 318.126 315.081 318.089 315.469ZM317.093 317.829V316.618H314.765C313.34 316.618 312.88 317.185 312.88 317.936C312.88 318.687 313.57 319.33 314.749 319.33C315.254 319.365 315.756 319.238 316.183 318.968C316.61 318.698 316.939 318.299 317.124 317.829H317.093Z" fill="#263238"/>
<path d="M332.996 315.761V320.05H332V315.868C332 314.336 331.203 313.508 329.87 313.508C329.525 313.492 329.18 313.552 328.86 313.683C328.54 313.814 328.252 314.014 328.017 314.268C327.782 314.522 327.606 314.824 327.5 315.153C327.394 315.482 327.361 315.831 327.404 316.174V320.05H326.408V315.868C326.408 314.336 325.611 313.508 324.263 313.508C323.918 313.492 323.573 313.552 323.253 313.683C322.933 313.814 322.645 314.014 322.41 314.268C322.175 314.522 321.999 314.824 321.893 315.153C321.787 315.482 321.754 315.831 321.797 316.174V320.05H320.801V312.666H321.72V314.06C322.009 313.608 322.412 313.24 322.888 312.993C323.364 312.746 323.896 312.628 324.432 312.651C324.975 312.606 325.519 312.729 325.99 313.003C326.461 313.277 326.837 313.688 327.067 314.183C327.367 313.687 327.796 313.282 328.309 313.012C328.822 312.742 329.399 312.617 329.978 312.651C330.391 312.613 330.808 312.669 331.197 312.814C331.587 312.958 331.939 313.188 332.228 313.486C332.518 313.784 332.737 314.143 332.869 314.536C333.002 314.93 333.045 315.348 332.996 315.761Z" fill="#263238"/>
<path d="M342.172 316.664H336.044C336.066 317.025 336.158 317.377 336.316 317.702C336.474 318.026 336.695 318.317 336.965 318.556C337.236 318.795 337.551 318.978 337.892 319.095C338.234 319.212 338.595 319.261 338.955 319.238C339.382 319.252 339.807 319.171 340.199 319.002C340.591 318.832 340.94 318.578 341.222 318.258L341.774 318.916C341.243 319.471 340.561 319.857 339.812 320.025C339.063 320.194 338.281 320.139 337.563 319.866C336.846 319.593 336.225 319.115 335.778 318.491C335.33 317.867 335.077 317.125 335.048 316.358C335.023 315.87 335.098 315.382 335.269 314.925C335.44 314.467 335.703 314.049 336.042 313.697C336.381 313.346 336.789 313.067 337.24 312.879C337.691 312.691 338.175 312.598 338.664 312.605C339.152 312.595 339.636 312.687 340.087 312.874C340.537 313.062 340.944 313.341 341.281 313.694C341.618 314.047 341.878 314.466 342.045 314.924C342.211 315.383 342.281 315.871 342.249 316.358C342.188 316.435 342.172 316.542 342.172 316.664ZM336.044 315.914H341.284C341.284 315.219 341.008 314.553 340.516 314.061C340.025 313.57 339.359 313.294 338.664 313.294C337.969 313.294 337.303 313.57 336.812 314.061C336.32 314.553 336.044 315.219 336.044 315.914Z" fill="#263238"/>
</g>
<path d="M180.546 590.249H179.091C179.091 588.089 180.883 537.472 189.692 528.969C198.746 520.16 209.394 528.846 209.486 528.969L208.566 530.072C208.168 529.75 198.808 522.152 190.688 530.072C182.308 538.054 180.562 589.728 180.546 590.249Z" fill="#394689"/>
<path d="M179.811 600.406L178.371 600.268C178.371 599.655 184.07 538.804 162.024 513.496L163.112 512.546C185.571 538.329 179.872 599.793 179.811 600.406Z" fill="#394689"/>
<path d="M180.516 593.91C180.332 591.03 176.088 523.438 193.032 507.812L194.013 508.884C177.574 523.99 181.91 593.144 181.956 593.803L180.516 593.91Z" fill="#394689"/>
<path d="M178.371 593.864C178.371 593.405 177.85 547.904 165.793 541.056C164.768 540.38 163.596 539.961 162.374 539.833C161.153 539.705 159.919 539.872 158.777 540.321C151.714 543.247 147.961 556.729 147.915 556.867L146.521 556.484C146.674 555.901 150.504 542.19 158.225 538.988C159.57 538.448 161.026 538.24 162.468 538.381C163.911 538.522 165.298 539.009 166.513 539.8C179.275 547.108 179.811 591.888 179.826 593.849L178.371 593.864Z" fill="#394689"/>
<path d="M183.334 593.895C183.243 592.363 181.389 557.985 191.148 545.223C193.752 541.838 196.632 540.229 199.757 540.459C206.697 540.934 212.013 550.34 212.305 550.739L211.048 551.459C211.048 551.367 205.809 542.267 199.65 541.899C197.061 541.7 194.579 543.125 192.297 546.112C182.86 558.368 184.759 593.466 184.775 593.818L183.334 593.895Z" fill="#394689"/>
<path d="M181.389 598.66L179.949 598.552C179.949 597.725 186.077 515.641 175.965 501.945L177.13 501.087C187.578 515.212 181.649 595.259 181.389 598.66Z" fill="#394689"/>
<path d="M155.421 547.154C155.421 547.154 161.672 549.467 159.818 554.906C157.964 560.344 138.171 569.307 138.171 569.307C138.171 569.307 129.883 561.723 137.497 549.391C145.111 537.058 155.253 543.263 155.421 547.154Z" fill="#394689"/>
<path opacity="0.2" d="M155.421 547.154C155.421 547.154 161.672 549.467 159.818 554.906C157.964 560.344 138.171 569.307 138.171 569.307C138.171 569.307 129.883 561.723 137.497 549.391C145.111 537.058 155.253 543.263 155.421 547.154Z" fill="black"/>
<path d="M182.614 536.798C182.614 536.798 175.95 536.522 175.567 542.251C175.184 547.981 189.968 563.883 189.968 563.883C189.968 563.883 200.539 560.053 198.271 545.729C196.004 531.405 184.269 533.259 182.614 536.798Z" fill="#394689"/>
<path opacity="0.2" d="M182.614 536.798C182.614 536.798 175.95 536.522 175.567 542.251C175.184 547.981 189.968 563.883 189.968 563.883C189.968 563.883 200.539 560.053 198.271 545.729C196.004 531.405 184.269 533.259 182.614 536.798Z" fill="black"/>
<path d="M188.252 509.313C188.252 509.313 183.809 508.838 184.162 506.142C184.514 503.446 201.427 496.475 211.401 507.674C211.401 507.674 205.012 518.643 195.79 518.796C186.567 518.95 188.252 509.313 188.252 509.313Z" fill="#394689"/>
<path opacity="0.2" d="M188.252 509.313C188.252 509.313 183.809 508.838 184.162 506.142C184.514 503.446 201.427 496.475 211.401 507.674C211.401 507.674 205.012 518.643 195.79 518.796C186.567 518.95 188.252 509.313 188.252 509.313Z" fill="black"/>
<path d="M179.979 502.741C179.979 502.741 183.993 504.687 185.127 502.205C186.26 499.723 175.582 484.878 161.166 489.152C161.166 489.152 160.783 501.837 168.535 506.847C176.287 511.857 179.979 502.741 179.979 502.741Z" fill="#394689"/>
<path opacity="0.2" d="M179.979 502.741C179.979 502.741 183.993 504.687 185.127 502.205C186.26 499.723 175.582 484.878 161.166 489.152C161.166 489.152 160.783 501.837 168.535 506.847C176.287 511.857 179.979 502.741 179.979 502.741Z" fill="black"/>
<path d="M200.998 544.978C200.998 544.978 197.934 542.497 201.243 541.286C204.553 540.076 220.776 540.428 220.945 556.499C220.945 556.499 202.04 559.64 199.711 553.512C197.383 547.384 200.998 544.978 200.998 544.978Z" fill="#394689"/>
<path opacity="0.2" d="M200.998 544.978C200.998 544.978 197.934 542.497 201.243 541.286C204.553 540.076 220.776 540.428 220.945 556.499C220.945 556.499 202.04 559.64 199.711 553.512C197.383 547.384 200.998 544.978 200.998 544.978Z" fill="black"/>
<path d="M162.392 508.915C162.392 508.915 165.456 506.433 162.147 505.238C158.838 504.043 142.614 504.365 142.445 520.436C142.445 520.436 161.35 523.592 163.679 517.464C166.007 511.336 162.392 508.915 162.392 508.915Z" fill="#394689"/>
<path opacity="0.2" d="M162.392 508.915C162.392 508.915 165.456 506.433 162.147 505.238C158.838 504.043 142.614 504.365 142.445 520.436C142.445 520.436 161.35 523.592 163.679 517.464C166.007 511.336 162.392 508.915 162.392 508.915Z" fill="black"/>
<path d="M172.442 521.861C172.442 521.861 172.718 518.797 170.282 520.037C167.846 521.278 159.405 530.348 168.168 539.004C168.168 539.004 179.979 530.256 177.85 525.706C175.72 521.156 172.442 521.861 172.442 521.861Z" fill="#394689"/>
<path opacity="0.2" d="M172.442 521.861C172.442 521.861 172.718 518.797 170.282 520.037C167.846 521.278 159.405 530.348 168.168 539.004C168.168 539.004 179.979 530.256 177.85 525.706C175.72 521.156 172.442 521.861 172.442 521.861Z" fill="black"/>
<path d="M203.756 526.15C203.756 526.15 201.918 523.745 204.614 523.454C207.31 523.163 219.321 526.365 216.518 538.375C216.518 538.375 201.872 537.272 201.198 532.247C200.523 527.222 203.756 526.15 203.756 526.15Z" fill="#394689"/>
<path opacity="0.2" d="M203.756 526.15C203.756 526.15 201.918 523.745 204.614 523.454C207.31 523.163 219.321 526.365 216.518 538.375C216.518 538.375 201.872 537.272 201.198 532.247C200.523 527.222 203.756 526.15 203.756 526.15Z" fill="black"/>
<path d="M156.509 638.415H203.863L210.16 592.363H150.213L156.509 638.415Z" fill="#263238"/>
<path opacity="0.2" d="M156.509 638.415H203.863L210.16 592.363H150.213L156.509 638.415Z" fill="white"/>
<path d="M216.104 588.625V593.007C216.104 594.412 215.545 595.761 214.551 596.755C213.557 597.749 212.209 598.307 210.803 598.307H148.987C147.581 598.307 146.233 597.749 145.239 596.755C144.245 595.761 143.686 594.412 143.686 593.007V588.625H216.104Z" fill="#263238"/>
<path d="M610.686 152.143H566.672C563.08 152.143 559.635 153.57 557.095 156.11C554.556 158.649 553.129 162.094 553.129 165.686V203.986C553.127 205.766 553.475 207.528 554.155 209.173C554.835 210.818 555.832 212.313 557.09 213.572C558.348 214.831 559.841 215.83 561.485 216.512C563.129 217.193 564.892 217.544 566.672 217.544H579.525L576.461 229.631L588.717 217.544H610.763C614.358 217.544 617.807 216.116 620.35 213.573C622.892 211.03 624.321 207.582 624.321 203.986V165.686C624.321 163.9 623.967 162.131 623.281 160.482C622.595 158.833 621.589 157.336 620.322 156.077C619.054 154.818 617.551 153.822 615.897 153.147C614.243 152.472 612.472 152.131 610.686 152.143Z" fill="#394689"/>
<path opacity="0.7" d="M610.686 152.143H566.672C563.08 152.143 559.635 153.57 557.095 156.11C554.556 158.649 553.129 162.094 553.129 165.686V203.986C553.127 205.766 553.475 207.528 554.155 209.173C554.835 210.818 555.832 212.313 557.09 213.572C558.348 214.831 559.841 215.83 561.485 216.512C563.129 217.193 564.892 217.544 566.672 217.544H579.525L576.461 229.631L588.717 217.544H610.763C614.358 217.544 617.807 216.116 620.35 213.573C622.892 211.03 624.321 207.582 624.321 203.986V165.686C624.321 163.9 623.967 162.131 623.281 160.482C622.595 158.833 621.589 157.336 620.322 156.077C619.054 154.818 617.551 153.822 615.897 153.147C614.243 152.472 612.472 152.131 610.686 152.143Z" fill="white"/>
<path d="M588.686 201.764C598.12 201.764 605.768 194.117 605.768 184.683C605.768 175.249 598.12 167.601 588.686 167.601C579.252 167.601 571.605 175.249 571.605 184.683C571.605 194.117 579.252 201.764 588.686 201.764Z" fill="white"/>
<path d="M588.686 162.836C584.366 162.836 580.142 164.118 576.549 166.518C572.957 168.919 570.156 172.33 568.503 176.322C566.849 180.314 566.417 184.707 567.26 188.945C568.103 193.182 570.183 197.075 573.239 200.13C576.294 203.186 580.187 205.266 584.424 206.109C588.662 206.952 593.055 206.519 597.047 204.866C601.038 203.212 604.45 200.412 606.851 196.82C609.251 193.227 610.533 189.003 610.533 184.683C610.535 181.813 609.971 178.971 608.874 176.32C607.777 173.669 606.168 171.259 604.139 169.23C602.109 167.201 599.7 165.592 597.049 164.495C594.398 163.398 591.556 162.834 588.686 162.836ZM601.08 178.156L587.92 193.66C587.733 193.884 587.499 194.064 587.234 194.186C586.969 194.307 586.68 194.369 586.388 194.365C586.097 194.367 585.809 194.304 585.544 194.183C585.279 194.061 585.045 193.883 584.856 193.66L576.292 183.564C576.112 183.365 575.973 183.131 575.884 182.876C575.795 182.622 575.759 182.352 575.777 182.083C575.795 181.814 575.867 181.552 575.988 181.311C576.11 181.071 576.278 180.857 576.484 180.683C576.69 180.51 576.929 180.379 577.186 180.299C577.443 180.22 577.714 180.193 577.982 180.22C578.25 180.247 578.51 180.328 578.746 180.458C578.982 180.587 579.19 180.763 579.356 180.975L586.388 189.263L598.016 175.567C598.366 175.182 598.851 174.947 599.37 174.913C599.889 174.878 600.401 175.046 600.798 175.382C601.196 175.718 601.447 176.195 601.5 176.712C601.552 177.23 601.402 177.748 601.08 178.156Z" fill="#394689"/>
<path d="M603.057 388.454C603.057 388.454 576.384 385.084 535.97 396.114C535.97 396.114 529.475 323.895 530.241 313.968C531.007 304.041 592.639 306.952 592.639 306.952C592.639 306.952 594.171 335.86 598.185 353.295C602.199 370.729 605.14 385.099 603.057 388.454Z" fill="#394689"/>
<path opacity="0.2" d="M603.057 388.454C603.057 388.454 576.384 385.084 535.97 396.114C535.97 396.114 529.475 323.895 530.241 313.968C531.007 304.041 592.639 306.952 592.639 306.952C592.639 306.952 594.171 335.86 598.185 353.295C602.199 370.729 605.14 385.099 603.057 388.454Z" fill="black"/>
<path d="M516.483 627.538L527.36 630.617L529.949 613.689L531.344 604.634L520.466 601.555L518.613 613.689L516.483 627.538Z" fill="#E4897B"/>
<path d="M579.019 628.426L590.234 629.912L590.341 613.689L590.417 603.608L579.188 602.137L579.111 613.689L579.019 628.426Z" fill="#E4897B"/>
<path opacity="0.2" d="M579.188 602.137L579.111 613.689H590.341L590.417 603.608L579.188 602.137Z" fill="black"/>
<path opacity="0.2" d="M518.613 613.689H529.95L531.344 604.634L520.466 601.555L518.613 613.689Z" fill="black"/>
<path d="M468.195 319.897L457.394 316.71L459.37 329.043C459.37 329.043 469.175 331.295 470.094 326.193L468.195 319.897Z" fill="#E4897B"/>
<path d="M446.609 319.575L451.909 329.594L459.37 329.043L457.394 316.71L446.609 319.575Z" fill="#E4897B"/>
<path d="M483.101 323.053L465.36 319.085L463.752 327.695L479.853 331.617L483.101 323.053Z" fill="#E4897B"/>
<path d="M536.767 315.27L535.725 316.511C533.488 319.131 528.065 325.458 522.412 330.912C517.816 335.355 513.22 339.231 510.156 340.012C501.47 342.249 469.895 332.95 469.895 332.95L473.158 320.142C473.158 320.142 502.573 324.049 504.855 324.049C506.586 324.049 524.48 298.127 528.816 295.998L536.767 315.27Z" fill="#394689"/>
<path opacity="0.2" d="M535.725 316.511C533.488 319.131 528.065 325.458 522.412 330.912C523.546 321.934 526.839 313.692 531.175 308.484C531.579 307.981 532.042 307.528 532.554 307.135L535.725 316.511Z" fill="black"/>
<path d="M516.621 625.837L528.969 625.516C529.192 625.509 529.41 625.578 529.588 625.711C529.766 625.845 529.894 626.035 529.949 626.251L532.554 636.194C532.616 636.432 532.624 636.681 532.577 636.922C532.53 637.164 532.429 637.391 532.282 637.589C532.134 637.786 531.945 637.947 531.727 638.061C531.509 638.175 531.268 638.238 531.022 638.247C526.564 638.247 520.114 638.247 514.522 638.354C507.965 638.538 503.798 638.216 496.138 638.354C491.542 638.476 490.01 633.85 491.971 633.375C500.75 631.199 506.494 631.628 513.971 626.726C514.76 626.2 515.674 625.893 516.621 625.837Z" fill="#263238"/>
<path d="M515.549 627.431C513.741 627.829 510.524 628.365 509.237 627.308C509.049 627.153 508.901 626.955 508.806 626.731C508.71 626.507 508.668 626.264 508.685 626.021C508.685 625.875 508.723 625.732 508.795 625.605C508.868 625.479 508.973 625.374 509.099 625.301C510.462 624.489 515.074 626.68 515.61 626.925C515.657 626.95 515.696 626.988 515.723 627.034C515.75 627.08 515.764 627.132 515.763 627.185C515.761 627.245 515.738 627.301 515.699 627.346C515.66 627.39 515.607 627.42 515.549 627.431ZM509.421 625.73H509.329C509.278 625.76 509.235 625.802 509.206 625.853C509.176 625.904 509.16 625.962 509.16 626.021C509.148 626.18 509.173 626.339 509.234 626.485C509.295 626.632 509.391 626.762 509.513 626.864C510.233 627.461 512.102 627.522 514.584 627.032C512.791 626.282 510.294 625.408 509.451 625.73H509.421Z" fill="#394689"/>
<path d="M515.549 627.431H515.365C513.971 626.848 511.182 624.489 511.336 623.218C511.336 622.911 511.581 622.528 512.316 622.436C512.586 622.401 512.86 622.419 513.123 622.49C513.386 622.561 513.633 622.683 513.848 622.85C515.38 623.999 515.733 627.017 515.763 627.139C515.768 627.186 515.76 627.233 515.741 627.276C515.722 627.319 515.693 627.356 515.656 627.385L515.549 627.431ZM512.117 623.034C511.887 623.11 511.872 623.233 511.872 623.279C511.78 624.045 513.68 625.914 515.104 626.711C514.94 625.424 514.371 624.222 513.48 623.279C513.329 623.152 513.153 623.059 512.962 623.006C512.772 622.953 512.573 622.942 512.377 622.972C512.288 622.98 512.2 623.001 512.117 623.034Z" fill="#394689"/>
<path d="M579.464 625.837L591.812 625.516C592.036 625.508 592.257 625.576 592.438 625.71C592.618 625.843 592.749 626.034 592.807 626.251L595.397 636.194C595.462 636.432 595.472 636.682 595.426 636.924C595.38 637.167 595.28 637.396 595.132 637.594C594.984 637.792 594.793 637.954 594.574 638.067C594.354 638.18 594.111 638.241 593.865 638.246C589.406 638.246 582.957 638.246 577.35 638.354C570.808 638.538 566.626 638.216 558.966 638.354C554.37 638.476 552.838 633.85 554.799 633.375C563.577 631.199 569.307 631.628 576.783 626.726C577.581 626.195 578.507 625.888 579.464 625.837Z" fill="#263238"/>
<path d="M578.407 627.431C576.599 627.829 573.366 628.365 572.095 627.308C571.907 627.153 571.759 626.955 571.663 626.731C571.568 626.507 571.526 626.264 571.543 626.021C571.543 625.875 571.581 625.732 571.653 625.605C571.726 625.479 571.831 625.374 571.957 625.301C573.305 624.489 577.932 626.68 578.453 626.925C578.504 626.945 578.546 626.982 578.574 627.029C578.602 627.076 578.613 627.131 578.606 627.185C578.602 627.242 578.58 627.295 578.545 627.339C578.509 627.383 578.461 627.415 578.407 627.431ZM572.279 625.73H572.187C572.136 625.759 572.095 625.802 572.068 625.853C572.041 625.905 572.029 625.963 572.034 626.021C572.018 626.18 572.042 626.34 572.104 626.487C572.165 626.634 572.262 626.763 572.386 626.864C573.106 627.461 574.96 627.522 577.457 627.032C575.634 626.282 573.137 625.408 572.294 625.73H572.279Z" fill="#394689"/>
<path d="M578.407 627.431H578.207C576.829 626.848 574.025 624.489 574.194 623.218C574.194 622.911 574.423 622.528 575.159 622.436C575.429 622.399 575.704 622.417 575.967 622.488C576.23 622.559 576.476 622.682 576.691 622.85C577.763 624.044 578.432 625.544 578.606 627.14C578.614 627.186 578.608 627.234 578.589 627.278C578.569 627.322 578.538 627.359 578.498 627.385L578.407 627.431ZM574.96 623.034C574.745 623.11 574.73 623.233 574.73 623.279C574.623 624.045 576.538 625.914 577.962 626.711C577.787 625.427 577.22 624.228 576.338 623.279C576.187 623.153 576.01 623.06 575.82 623.007C575.63 622.954 575.43 622.943 575.235 622.973L574.96 623.034Z" fill="#394689"/>
<path d="M602.153 381.866C608.097 407.619 597.894 610.226 597.894 610.226H578.192L569.766 441.385L538.743 610.226L517.678 608.694C531.466 477.892 543.615 399.806 543.615 399.806V389.94L602.153 381.866Z" fill="#263238"/>
<path opacity="0.4" d="M517.678 608.694L538.743 610.226L563.163 477.31L569.766 441.385L578.192 610.226H597.894C597.894 610.226 608.097 407.619 602.153 381.866L543.584 389.94V399.806C543.584 399.806 531.451 477.892 517.678 608.694Z" fill="white"/>
<path d="M591.536 286.484C590.932 298.797 591.244 311.138 592.47 323.405C593.298 331.984 594.431 340.089 595.642 347.396C598.476 364.539 601.693 377.393 602.153 381.882L543.584 389.955C522.228 330.207 530.271 295.492 530.271 295.492C534.65 293.684 539.138 292.149 543.707 290.896C544.672 290.636 545.652 290.391 546.664 290.161C554.889 288.542 563.201 287.396 571.559 286.729C573.091 286.591 574.76 286.484 576.323 286.407C584.32 286.009 591.536 286.484 591.536 286.484Z" fill="#263238"/>
<path d="M560.191 259.597C560.62 267.794 561.493 283.175 568.311 287.081C568.311 287.081 564.067 295.155 554.89 295.982C547.951 296.595 548.41 289.747 548.41 289.747C552.424 286.76 551.474 281.689 548.41 275.959L560.191 259.597Z" fill="#E4897B"/>
<path opacity="0.2" d="M555.381 266.277L548.456 275.959C549.185 277.283 549.8 278.667 550.294 280.096C553.512 278.809 557.204 273.968 556.668 270.459C556.5 268.998 556.063 267.58 555.381 266.277Z" fill="black"/>
<path d="M530.317 243.098C528.984 247.357 529.72 256.089 535.649 253.255C541.577 250.421 532.615 235.79 530.317 243.098Z" fill="#263238"/>
<path d="M560.957 248.858C561.616 259.781 562.489 266.139 557.725 272.328C550.478 281.628 536.445 278.165 532.523 267.625C529 258.127 528.525 241.857 538.651 236.342C540.896 235.12 543.414 234.489 545.969 234.505C548.524 234.522 551.034 235.187 553.262 236.437C555.491 237.688 557.366 239.483 558.711 241.655C560.057 243.828 560.83 246.306 560.957 248.858Z" fill="#E4897B"/>
<path d="M553.297 242.914V230.658C553.297 230.658 566.288 229.693 565.706 236.342C572.907 239.911 569.506 251.11 559.839 256.595C554.538 252.351 555.151 242.148 555.151 242.148C554.584 242.439 553.941 242.684 553.297 242.914Z" fill="#263238"/>
<path d="M566.243 257.376C565.992 258.712 565.477 259.985 564.727 261.119C563.977 262.253 563.008 263.225 561.876 263.979C558.812 265.986 556.162 263.519 556.055 260.072C555.963 257.008 557.418 252.167 560.942 251.554C561.713 251.434 562.501 251.507 563.237 251.766C563.972 252.026 564.632 252.463 565.158 253.04C565.683 253.617 566.057 254.315 566.246 255.071C566.435 255.828 566.434 256.62 566.243 257.376Z" fill="#E4897B"/>
<path d="M544.825 253.73C544.932 254.618 544.549 255.384 543.967 255.446C543.385 255.507 542.834 254.848 542.726 253.914C542.619 252.979 543.002 252.259 543.569 252.198C544.136 252.137 544.718 252.78 544.825 253.73Z" fill="#263238"/>
<path d="M534.806 254.848C534.913 255.737 534.53 256.503 533.948 256.564C533.366 256.625 532.814 255.967 532.707 255.032C532.6 254.098 532.983 253.377 533.565 253.316C534.147 253.255 534.668 253.96 534.806 254.848Z" fill="#263238"/>
<path d="M538.038 254.925C537.264 257.664 536.115 260.283 534.622 262.707C535.283 263.047 536.008 263.243 536.75 263.283C537.492 263.322 538.234 263.204 538.927 262.937L538.038 254.925Z" fill="#DE5753"/>
<path d="M544.09 265.787C543.712 265.883 543.328 265.955 542.941 266.001C542.872 266.001 542.806 265.974 542.757 265.925C542.708 265.876 542.68 265.81 542.68 265.741C542.68 265.672 542.708 265.605 542.757 265.557C542.806 265.508 542.872 265.48 542.941 265.48C544.041 265.38 545.102 265.023 546.039 264.438C546.976 263.852 547.762 263.055 548.334 262.11C548.347 262.079 548.366 262.051 548.39 262.028C548.415 262.005 548.444 261.987 548.475 261.975C548.507 261.964 548.541 261.959 548.574 261.961C548.608 261.963 548.641 261.972 548.671 261.987C548.702 262.002 548.73 262.023 548.754 262.049C548.777 262.075 548.795 262.105 548.806 262.138C548.818 262.17 548.822 262.205 548.82 262.24C548.818 262.275 548.809 262.309 548.793 262.34C548.292 263.21 547.615 263.966 546.805 264.559C545.995 265.153 545.07 265.571 544.09 265.787Z" fill="#263238"/>
<path d="M547.522 250.16C547.429 250.182 547.332 250.179 547.241 250.152C547.15 250.125 547.067 250.075 547.001 250.007C546.557 249.521 546.006 249.145 545.392 248.908C544.778 248.671 544.117 248.581 543.462 248.644C543.394 248.659 543.324 248.661 543.256 248.648C543.188 248.635 543.123 248.609 543.065 248.57C543.008 248.531 542.959 248.481 542.922 248.422C542.885 248.364 542.86 248.298 542.849 248.23C542.836 248.163 542.836 248.093 542.849 248.026C542.863 247.958 542.89 247.894 542.928 247.837C542.967 247.78 543.016 247.732 543.073 247.694C543.131 247.656 543.195 247.63 543.263 247.617C544.09 247.519 544.928 247.619 545.709 247.909C546.489 248.2 547.19 248.672 547.751 249.287C547.801 249.334 547.841 249.391 547.869 249.455C547.896 249.518 547.91 249.586 547.91 249.655C547.91 249.724 547.896 249.792 547.869 249.855C547.841 249.918 547.801 249.975 547.751 250.022C547.686 250.085 547.607 250.132 547.522 250.16Z" fill="#263238"/>
<path d="M530.072 251.891C529.973 251.929 529.864 251.929 529.766 251.891C529.636 251.846 529.529 251.752 529.469 251.628C529.409 251.505 529.4 251.363 529.444 251.233C529.697 250.444 530.137 249.729 530.727 249.147C531.316 248.565 532.038 248.135 532.83 247.893C532.964 247.858 533.106 247.879 533.225 247.949C533.344 248.019 533.431 248.134 533.465 248.268C533.5 248.402 533.48 248.545 533.409 248.664C533.339 248.783 533.224 248.87 533.09 248.904C532.464 249.097 531.894 249.441 531.432 249.906C530.97 250.371 530.629 250.942 530.44 251.57C530.411 251.65 530.362 251.722 530.297 251.778C530.233 251.834 530.155 251.873 530.072 251.891Z" fill="#263238"/>
<path d="M559.057 247.449C559.057 247.449 551.397 244.645 547.904 240.202C547.904 240.202 540.949 242.025 539.524 244.798C538.874 244.242 538.454 243.464 538.343 242.615C538.233 241.766 538.441 240.907 538.927 240.202C538.927 240.202 533.718 241.305 532.692 244.798C531.845 244.395 531.15 243.731 530.709 242.904C530.268 242.077 530.104 241.13 530.24 240.202C530.24 240.202 527.927 241.076 527.176 244.798C527.176 244.798 521.431 232.818 540.413 229.386C538.977 228.899 537.472 228.645 535.955 228.636C535.955 228.636 549.207 223.289 559.701 228.176C570.195 233.063 568.372 242.531 559.057 247.449Z" fill="#263238"/>
<path d="M606.672 392.192L588.288 394.643C588.288 394.643 580.705 341.651 577.365 324.539V288.016L586.971 285.488L594.416 288.016C596.458 295.364 598.029 302.835 599.119 310.383C600.023 316.113 600.835 322.241 601.555 328.445C602.551 336.902 603.378 345.512 604.083 353.57C605.186 366.577 605.921 378.082 606.32 385.114C606.549 389.526 606.672 392.192 606.672 392.192Z" fill="#394689"/>
<path d="M577.38 324.508C577.38 324.508 578.912 298.725 586.986 285.427C586.986 285.427 586.787 281.628 585.178 281.015C583.57 280.402 577.38 284.079 577.38 284.079C577.38 284.079 573.535 281.444 572.692 282.669C571.85 283.895 569.797 292.045 577.38 324.508Z" fill="#394689"/>
<path opacity="0.7" d="M577.38 324.508C577.38 324.508 578.912 298.725 586.986 285.427C586.986 285.427 586.787 281.628 585.178 281.015C583.57 280.402 577.38 284.079 577.38 284.079C577.38 284.079 573.535 281.444 572.692 282.669C571.85 283.895 569.797 292.045 577.38 324.508Z" fill="white"/>
<path d="M535.587 399.255L537.686 400.787C537.686 400.787 534.622 383.705 535.878 340.502C535.878 338.419 536.016 336.412 536.093 334.497C537.625 297.943 543.324 291.294 543.753 290.896L538.452 292.704L528.846 296.013C525.951 327.189 535.587 399.255 535.587 399.255Z" fill="#394689"/>
<path d="M536.415 328.2C536.415 328.2 531.114 303.137 532.692 294.496C534.27 285.856 539.923 289.701 539.923 289.701C539.923 289.701 545.116 285.504 546.664 290.13C546.664 290.13 539.524 295.155 536.415 328.2Z" fill="#394689"/>
<path opacity="0.7" d="M536.415 328.2C536.415 328.2 531.114 303.137 532.692 294.496C534.27 285.856 539.923 289.701 539.923 289.701C539.923 289.701 545.116 285.504 546.664 290.13C546.664 290.13 539.524 295.155 536.415 328.2Z" fill="white"/>
<path opacity="0.2" d="M601.525 328.384C593.681 323.987 592.639 312.513 592.639 312.513C593.114 312.329 596.025 311.333 599.089 310.322C599.993 316.052 600.805 322.18 601.525 328.384Z" fill="black"/>
<path opacity="0.2" d="M563.163 477.31L569.766 441.385L568.495 422.372C568.495 422.372 559.44 455.341 563.163 477.31Z" fill="black"/>
<path opacity="0.2" d="M606.289 385.053C601.356 384.716 597.097 384.394 597.097 384.394L596.162 364.34C597.7 363.378 599.546 363.038 601.325 363.39C602.538 360.187 603.455 356.879 604.068 353.509C605.14 366.516 605.891 378.036 606.289 385.053Z" fill="black"/>
<path d="M607.974 353.494L598.369 368.921L605.967 373.287L614.991 359.392L607.974 353.494Z" fill="#E4897B"/>
<path d="M594.002 287.771C600.467 288.476 627.951 326.193 629.162 337.561C630.372 348.928 613.014 368.553 613.014 368.553L601.433 361.736C601.433 361.736 613.198 343.643 613.811 338.756C614.424 333.869 592.286 314.121 592.286 314.121C590.613 309.572 589.691 304.781 589.56 299.935C589.253 291.632 594.002 287.771 594.002 287.771Z" fill="#394689"/>
<path d="M596.147 364.356C596.147 364.356 606.028 366.47 610.012 372.69C610.012 372.69 605.875 385.635 602.919 387.044C599.962 388.454 592.639 388.454 592.639 388.454C592.639 388.454 592.164 374.053 596.147 364.356Z" fill="#394689"/>
</svg>
